M48
;GenerationSoftware,Autodesk,EAGLE,9.6.2*%
;CreationDate,2021-04-28T10:39:17Z*%
FMAT,2
ICI,OFF
METRIC,TZ,000.000
T4C0.813
T3C1.000
T2C1.016
T1C1.200
%
G90
M71
T1
X5715Y56515
X57785Y56515
X40005Y56515
X45085Y56515
X10795Y56515
X52705Y56515
T2
X52705Y46355
X57785Y46355
X55245Y46355
T3
X45085Y31115
X27305Y3175
X47625Y3175
X45085Y3175
X42545Y3175
X40005Y3175
X37465Y3175
X34925Y3175
X32385Y3175
X29845Y3175
X24765Y3175
X14605Y31115
X17145Y31115
X19685Y31115
X22225Y31115
X24765Y31115
X27305Y31115
X29845Y31115
X32385Y31115
X34925Y31115
X37465Y31115
X40005Y31115
X42545Y31115
X47625Y31115
X12065Y3175
X14605Y3175
X17145Y3175
X19685Y3175
X22225Y3175
X12065Y31115
T4
X57785Y36195
X57785Y41275
X52705Y36195
X52705Y41275
X18415Y51435
X20320Y50165
X10795Y38735
X12065Y40640
X8255Y48895
X13335Y38735
X15240Y48895
X15240Y59055
X4445Y40005
X4445Y50165
X22860Y47625
X22860Y57785
X29845Y40640
X19685Y40640
X25400Y57785
X25400Y47625
X6985Y36195
X6985Y46355
X27305Y38100
X17145Y38100
X14605Y34290
X4445Y34290
X8255Y43815
X19685Y35560
X18415Y43815
X29845Y35560
X24130Y45085
X22860Y43180
X21590Y45085
X10795Y48895
X9525Y46990
X18415Y48895
X27940Y47625
X27940Y57785
M30