M48
;GenerationSoftware,Autodesk,EAGLE,9.6.2*%
;CreationDate,2021-10-08T23:08:17Z*%
FMAT,2
ICI,OFF
METRIC,TZ,000.000
T5C0.350
T4C1.016
T3C1.300
T2C3.500
%
G90
M71
T2
X3000Y14000
X3000Y49000
X72000Y49000
X72000Y14000
T3
X33541Y46705
X28461Y46705
X57481Y46935
X62561Y46935
X69985Y39859
X69985Y34779
T4
X26790Y2810
X39490Y2810
X29330Y2810
X31870Y2810
X34410Y2810
X36950Y2810
X53270Y2810
X20630Y2810
X18090Y2810
X15550Y2810
X13010Y2810
X10470Y2810
X7930Y2810
X65970Y2810
X50751Y33739
X50751Y38261
X44249Y33739
X44249Y38261
X60500Y33960
X60500Y36500
X60500Y39040
X68510Y2810
X42030Y2810
X63430Y2810
X60890Y2810
X58350Y2810
X55810Y2810
X42490Y47190
X50730Y2810
X44570Y2810
X2850Y2810
X5390Y2810
X45030Y47190
X47570Y47190
T5
X13500Y47500
X41600Y15900
X67500Y17500
X47000Y17500
X23000Y17500
X57500Y17500
X33500Y17500
X9500Y17500
X24500Y48000
X61000Y28500
X13000Y29000
X19500Y18500
X37000Y29000
X44000Y18500
X65600Y15900
X68500Y28500
X19500Y20000
X34500Y29000
X44000Y20000
X58500Y28500
X19000Y29000
X42000Y28500
X66000Y28500
X25500Y36500
X11500Y37000
X27500Y42500
X10500Y29500
X13000Y32000
X11500Y36000
X32500Y42500
X17600Y15900
M30