G04 EAGLE Gerber RS-274X export*
G75*
%MOMM*%
%FSLAX34Y34*%
%LPD*%
%IN*%
%IPPOS*%
%AMOC8*
5,1,8,0,0,1.08239X$1,22.5*%
G01*
%ADD10C,0.254000*%


D10*
X0Y0D02*
X750700Y0D01*
X750700Y524800D01*
X0Y524800D01*
X0Y0D01*
X47500Y139427D02*
X47425Y138284D01*
X47276Y137148D01*
X47052Y136024D01*
X46755Y134917D01*
X46387Y133832D01*
X45949Y132774D01*
X45442Y131746D01*
X44869Y130754D01*
X44232Y129801D01*
X43535Y128892D01*
X42779Y128031D01*
X41969Y127221D01*
X41108Y126465D01*
X40199Y125768D01*
X39246Y125131D01*
X38254Y124558D01*
X37226Y124051D01*
X36168Y123613D01*
X35083Y123245D01*
X33976Y122948D01*
X32852Y122725D01*
X31716Y122575D01*
X30573Y122500D01*
X29427Y122500D01*
X28284Y122575D01*
X27148Y122725D01*
X26024Y122948D01*
X24917Y123245D01*
X23832Y123613D01*
X22774Y124051D01*
X21746Y124558D01*
X20754Y125131D01*
X19801Y125768D01*
X18892Y126465D01*
X18031Y127221D01*
X17221Y128031D01*
X16465Y128892D01*
X15768Y129801D01*
X15131Y130754D01*
X14558Y131746D01*
X14051Y132774D01*
X13613Y133832D01*
X13245Y134917D01*
X12948Y136024D01*
X12725Y137148D01*
X12575Y138284D01*
X12500Y139427D01*
X12500Y140573D01*
X12575Y141716D01*
X12725Y142852D01*
X12948Y143976D01*
X13245Y145083D01*
X13613Y146168D01*
X14051Y147226D01*
X14558Y148254D01*
X15131Y149246D01*
X15768Y150199D01*
X16465Y151108D01*
X17221Y151969D01*
X18031Y152779D01*
X18892Y153535D01*
X19801Y154232D01*
X20754Y154869D01*
X21746Y155442D01*
X22774Y155949D01*
X23832Y156387D01*
X24917Y156755D01*
X26024Y157052D01*
X27148Y157276D01*
X28284Y157425D01*
X29427Y157500D01*
X30573Y157500D01*
X31716Y157425D01*
X32852Y157276D01*
X33976Y157052D01*
X35083Y156755D01*
X36168Y156387D01*
X37226Y155949D01*
X38254Y155442D01*
X39246Y154869D01*
X40199Y154232D01*
X41108Y153535D01*
X41969Y152779D01*
X42779Y151969D01*
X43535Y151108D01*
X44232Y150199D01*
X44869Y149246D01*
X45442Y148254D01*
X45949Y147226D01*
X46387Y146168D01*
X46755Y145083D01*
X47052Y143976D01*
X47276Y142852D01*
X47425Y141716D01*
X47500Y140573D01*
X47500Y139427D01*
X47500Y489427D02*
X47425Y488284D01*
X47276Y487148D01*
X47052Y486024D01*
X46755Y484917D01*
X46387Y483832D01*
X45949Y482774D01*
X45442Y481746D01*
X44869Y480754D01*
X44232Y479801D01*
X43535Y478892D01*
X42779Y478031D01*
X41969Y477221D01*
X41108Y476465D01*
X40199Y475768D01*
X39246Y475131D01*
X38254Y474558D01*
X37226Y474051D01*
X36168Y473613D01*
X35083Y473245D01*
X33976Y472948D01*
X32852Y472725D01*
X31716Y472575D01*
X30573Y472500D01*
X29427Y472500D01*
X28284Y472575D01*
X27148Y472725D01*
X26024Y472948D01*
X24917Y473245D01*
X23832Y473613D01*
X22774Y474051D01*
X21746Y474558D01*
X20754Y475131D01*
X19801Y475768D01*
X18892Y476465D01*
X18031Y477221D01*
X17221Y478031D01*
X16465Y478892D01*
X15768Y479801D01*
X15131Y480754D01*
X14558Y481746D01*
X14051Y482774D01*
X13613Y483832D01*
X13245Y484917D01*
X12948Y486024D01*
X12725Y487148D01*
X12575Y488284D01*
X12500Y489427D01*
X12500Y490573D01*
X12575Y491716D01*
X12725Y492852D01*
X12948Y493976D01*
X13245Y495083D01*
X13613Y496168D01*
X14051Y497226D01*
X14558Y498254D01*
X15131Y499246D01*
X15768Y500199D01*
X16465Y501108D01*
X17221Y501969D01*
X18031Y502779D01*
X18892Y503535D01*
X19801Y504232D01*
X20754Y504869D01*
X21746Y505442D01*
X22774Y505949D01*
X23832Y506387D01*
X24917Y506755D01*
X26024Y507052D01*
X27148Y507276D01*
X28284Y507425D01*
X29427Y507500D01*
X30573Y507500D01*
X31716Y507425D01*
X32852Y507276D01*
X33976Y507052D01*
X35083Y506755D01*
X36168Y506387D01*
X37226Y505949D01*
X38254Y505442D01*
X39246Y504869D01*
X40199Y504232D01*
X41108Y503535D01*
X41969Y502779D01*
X42779Y501969D01*
X43535Y501108D01*
X44232Y500199D01*
X44869Y499246D01*
X45442Y498254D01*
X45949Y497226D01*
X46387Y496168D01*
X46755Y495083D01*
X47052Y493976D01*
X47276Y492852D01*
X47425Y491716D01*
X47500Y490573D01*
X47500Y489427D01*
X737500Y139427D02*
X737425Y138284D01*
X737276Y137148D01*
X737052Y136024D01*
X736755Y134917D01*
X736387Y133832D01*
X735949Y132774D01*
X735442Y131746D01*
X734869Y130754D01*
X734232Y129801D01*
X733535Y128892D01*
X732779Y128031D01*
X731969Y127221D01*
X731108Y126465D01*
X730199Y125768D01*
X729246Y125131D01*
X728254Y124558D01*
X727226Y124051D01*
X726168Y123613D01*
X725083Y123245D01*
X723976Y122948D01*
X722852Y122725D01*
X721716Y122575D01*
X720573Y122500D01*
X719427Y122500D01*
X718284Y122575D01*
X717148Y122725D01*
X716024Y122948D01*
X714917Y123245D01*
X713832Y123613D01*
X712774Y124051D01*
X711746Y124558D01*
X710754Y125131D01*
X709801Y125768D01*
X708892Y126465D01*
X708031Y127221D01*
X707221Y128031D01*
X706465Y128892D01*
X705768Y129801D01*
X705131Y130754D01*
X704558Y131746D01*
X704051Y132774D01*
X703613Y133832D01*
X703245Y134917D01*
X702948Y136024D01*
X702725Y137148D01*
X702575Y138284D01*
X702500Y139427D01*
X702500Y140573D01*
X702575Y141716D01*
X702725Y142852D01*
X702948Y143976D01*
X703245Y145083D01*
X703613Y146168D01*
X704051Y147226D01*
X704558Y148254D01*
X705131Y149246D01*
X705768Y150199D01*
X706465Y151108D01*
X707221Y151969D01*
X708031Y152779D01*
X708892Y153535D01*
X709801Y154232D01*
X710754Y154869D01*
X711746Y155442D01*
X712774Y155949D01*
X713832Y156387D01*
X714917Y156755D01*
X716024Y157052D01*
X717148Y157276D01*
X718284Y157425D01*
X719427Y157500D01*
X720573Y157500D01*
X721716Y157425D01*
X722852Y157276D01*
X723976Y157052D01*
X725083Y156755D01*
X726168Y156387D01*
X727226Y155949D01*
X728254Y155442D01*
X729246Y154869D01*
X730199Y154232D01*
X731108Y153535D01*
X731969Y152779D01*
X732779Y151969D01*
X733535Y151108D01*
X734232Y150199D01*
X734869Y149246D01*
X735442Y148254D01*
X735949Y147226D01*
X736387Y146168D01*
X736755Y145083D01*
X737052Y143976D01*
X737276Y142852D01*
X737425Y141716D01*
X737500Y140573D01*
X737500Y139427D01*
X737500Y489427D02*
X737425Y488284D01*
X737276Y487148D01*
X737052Y486024D01*
X736755Y484917D01*
X736387Y483832D01*
X735949Y482774D01*
X735442Y481746D01*
X734869Y480754D01*
X734232Y479801D01*
X733535Y478892D01*
X732779Y478031D01*
X731969Y477221D01*
X731108Y476465D01*
X730199Y475768D01*
X729246Y475131D01*
X728254Y474558D01*
X727226Y474051D01*
X726168Y473613D01*
X725083Y473245D01*
X723976Y472948D01*
X722852Y472725D01*
X721716Y472575D01*
X720573Y472500D01*
X719427Y472500D01*
X718284Y472575D01*
X717148Y472725D01*
X716024Y472948D01*
X714917Y473245D01*
X713832Y473613D01*
X712774Y474051D01*
X711746Y474558D01*
X710754Y475131D01*
X709801Y475768D01*
X708892Y476465D01*
X708031Y477221D01*
X707221Y478031D01*
X706465Y478892D01*
X705768Y479801D01*
X705131Y480754D01*
X704558Y481746D01*
X704051Y482774D01*
X703613Y483832D01*
X703245Y484917D01*
X702948Y486024D01*
X702725Y487148D01*
X702575Y488284D01*
X702500Y489427D01*
X702500Y490573D01*
X702575Y491716D01*
X702725Y492852D01*
X702948Y493976D01*
X703245Y495083D01*
X703613Y496168D01*
X704051Y497226D01*
X704558Y498254D01*
X705131Y499246D01*
X705768Y500199D01*
X706465Y501108D01*
X707221Y501969D01*
X708031Y502779D01*
X708892Y503535D01*
X709801Y504232D01*
X710754Y504869D01*
X711746Y505442D01*
X712774Y505949D01*
X713832Y506387D01*
X714917Y506755D01*
X716024Y507052D01*
X717148Y507276D01*
X718284Y507425D01*
X719427Y507500D01*
X720573Y507500D01*
X721716Y507425D01*
X722852Y507276D01*
X723976Y507052D01*
X725083Y506755D01*
X726168Y506387D01*
X727226Y505949D01*
X728254Y505442D01*
X729246Y504869D01*
X730199Y504232D01*
X731108Y503535D01*
X731969Y502779D01*
X732779Y501969D01*
X733535Y501108D01*
X734232Y500199D01*
X734869Y499246D01*
X735442Y498254D01*
X735949Y497226D01*
X736387Y496168D01*
X736755Y495083D01*
X737052Y493976D01*
X737276Y492852D01*
X737425Y491716D01*
X737500Y490573D01*
X737500Y489427D01*
M02*
