G04 EAGLE Gerber RS-274X export*
G75*
%MOMM*%
%FSLAX34Y34*%
%LPD*%
%INSoldermask Bottom*%
%IPPOS*%
%AMOC8*
5,1,8,0,0,1.08239X$1,22.5*%
G01*
%ADD10C,3.703200*%
%ADD11C,1.727200*%
%ADD12C,2.203200*%
%ADD13C,0.959600*%


D10*
X30000Y140000D03*
X30000Y490000D03*
X720000Y140000D03*
X720000Y490000D03*
D11*
X475700Y479520D02*
X475700Y464280D01*
X450300Y464280D02*
X450300Y479520D01*
X424900Y479520D02*
X424900Y464280D01*
X28500Y35720D02*
X28500Y20480D01*
X53900Y20480D02*
X53900Y35720D01*
X79300Y35720D02*
X79300Y20480D01*
X104700Y20480D02*
X104700Y35720D01*
X130100Y35720D02*
X130100Y20480D01*
X155500Y20480D02*
X155500Y35720D01*
X180900Y35720D02*
X180900Y20480D01*
X206300Y20480D02*
X206300Y35720D01*
X267900Y35720D02*
X267900Y20480D01*
X293300Y20480D02*
X293300Y35720D01*
X318700Y35720D02*
X318700Y20480D01*
X344100Y20480D02*
X344100Y35720D01*
X369500Y35720D02*
X369500Y20480D01*
X394900Y20480D02*
X394900Y35720D01*
X420300Y35720D02*
X420300Y20480D01*
X445700Y20480D02*
X445700Y35720D01*
X507300Y35720D02*
X507300Y20480D01*
X532700Y20480D02*
X532700Y35720D01*
X558100Y35720D02*
X558100Y20480D01*
X583500Y20480D02*
X583500Y35720D01*
X608900Y35720D02*
X608900Y20480D01*
X634300Y20480D02*
X634300Y35720D01*
X659700Y35720D02*
X659700Y20480D01*
X685100Y20480D02*
X685100Y35720D01*
D12*
X335411Y467050D03*
X284611Y467050D03*
X699850Y347789D03*
X699850Y398589D03*
X625611Y469350D03*
X574811Y469350D03*
D11*
X597380Y390400D02*
X612620Y390400D01*
X612620Y365000D02*
X597380Y365000D01*
X597380Y339600D02*
X612620Y339600D01*
X450108Y382606D02*
X434868Y382606D01*
X434868Y337394D02*
X450108Y337394D01*
X499892Y382606D02*
X515132Y382606D01*
X515132Y337394D02*
X499892Y337394D01*
D13*
X176000Y159000D03*
X416000Y159000D03*
X656000Y159000D03*
X440000Y185000D03*
X370000Y290000D03*
X195000Y185000D03*
X130000Y290000D03*
X610000Y285000D03*
X245000Y480000D03*
X95000Y175000D03*
X335000Y175000D03*
X575000Y175000D03*
X230000Y175000D03*
X470000Y175000D03*
X675000Y175000D03*
X135000Y475000D03*
X685000Y285000D03*
X195000Y200000D03*
X345000Y290000D03*
X440000Y200000D03*
X585000Y285000D03*
X190000Y290000D03*
X420000Y285000D03*
X660000Y285000D03*
X255000Y365000D03*
X115000Y370000D03*
X275000Y425000D03*
X105000Y295000D03*
X130000Y320000D03*
X115000Y360000D03*
X325000Y425000D03*
M02*
