G04 EAGLE Gerber RS-274X export*
G75*
%MOMM*%
%FSLAX34Y34*%
%LPD*%
%INBottom Copper*%
%IPPOS*%
%AMOC8*
5,1,8,0,0,1.08239X$1,22.5*%
G01*
%ADD10C,1.524000*%
%ADD11C,0.152400*%
%ADD12C,0.756400*%


D10*
X23000Y20680D02*
X23000Y35920D01*
X48400Y35920D02*
X48400Y20680D01*
X73800Y20680D02*
X73800Y35920D01*
X99200Y35920D02*
X99200Y20680D01*
X23000Y96880D02*
X23000Y112120D01*
X48400Y112120D02*
X48400Y96880D01*
X73800Y96880D02*
X73800Y112120D01*
X99200Y112120D02*
X99200Y96880D01*
D11*
X48400Y91600D02*
X48400Y104500D01*
X60000Y80000D02*
X60000Y72000D01*
X119419Y72000D01*
X119709Y72291D01*
D12*
X119709Y72291D03*
D11*
X60000Y80000D02*
X48400Y91600D01*
X73800Y104500D02*
X88000Y90300D01*
X88000Y80000D01*
X144000Y80000D01*
D12*
X144000Y80000D03*
D11*
X106700Y112000D02*
X99200Y104500D01*
X106700Y112000D02*
X172000Y112000D01*
D12*
X172000Y112000D03*
X112900Y56900D03*
D11*
X124000Y68000D01*
X156000Y68000D01*
X168000Y56000D01*
D12*
X168000Y56000D03*
D11*
X93500Y48000D02*
X73800Y28300D01*
X104000Y48000D02*
X120000Y32000D01*
D12*
X120000Y32000D03*
D11*
X104000Y48000D02*
X93500Y48000D01*
X48400Y48400D02*
X48400Y28300D01*
X64000Y64000D02*
X108000Y64000D01*
X107574Y64426D01*
D12*
X107574Y64426D03*
D11*
X64000Y64000D02*
X48400Y48400D01*
D12*
X116000Y88000D03*
D11*
X156000Y88000D01*
X164000Y80000D01*
D12*
X164000Y80000D03*
X72000Y52000D03*
D11*
X108000Y52000D01*
X112000Y48000D01*
X124000Y48000D01*
X128000Y52000D01*
X140000Y52000D01*
D12*
X140000Y52000D03*
M02*
