G04 EAGLE Gerber RS-274X export*
G75*
%MOMM*%
%FSLAX34Y34*%
%LPD*%
%INSilkscreen Top*%
%IPPOS*%
%AMOC8*
5,1,8,0,0,1.08239X$1,22.5*%
G01*
%ADD10C,0.152400*%
%ADD11C,0.000000*%
%ADD12C,0.127000*%
%ADD13C,0.015238*%
%ADD14C,0.050800*%


D10*
X61100Y34650D02*
X67450Y41000D01*
X80150Y41000D01*
X86500Y34650D01*
X86500Y21950D01*
X80150Y15600D01*
X67450Y15600D01*
X61100Y21950D01*
X29350Y41000D02*
X16650Y41000D01*
X29350Y41000D02*
X35700Y34650D01*
X35700Y21950D01*
X29350Y15600D01*
X35700Y34650D02*
X42050Y41000D01*
X54750Y41000D01*
X61100Y34650D01*
X61100Y21950D01*
X54750Y15600D01*
X42050Y15600D01*
X35700Y21950D01*
X10300Y21950D02*
X10300Y34650D01*
X16650Y41000D01*
X10300Y21950D02*
X16650Y15600D01*
X29350Y15600D01*
X92850Y41000D02*
X105550Y41000D01*
X111900Y34650D01*
X111900Y21950D01*
X105550Y15600D01*
X86500Y34650D02*
X92850Y41000D01*
X86500Y21950D02*
X92850Y15600D01*
X105550Y15600D01*
X61100Y110850D02*
X67450Y117200D01*
X80150Y117200D01*
X86500Y110850D01*
X86500Y98150D01*
X80150Y91800D01*
X67450Y91800D01*
X61100Y98150D01*
X29350Y117200D02*
X16650Y117200D01*
X29350Y117200D02*
X35700Y110850D01*
X35700Y98150D01*
X29350Y91800D01*
X35700Y110850D02*
X42050Y117200D01*
X54750Y117200D01*
X61100Y110850D01*
X61100Y98150D01*
X54750Y91800D01*
X42050Y91800D01*
X35700Y98150D01*
X10300Y98150D02*
X10300Y110850D01*
X16650Y117200D01*
X10300Y98150D02*
X16650Y91800D01*
X29350Y91800D01*
X92850Y117200D02*
X105550Y117200D01*
X111900Y110850D01*
X111900Y98150D01*
X105550Y91800D01*
X86500Y110850D02*
X92850Y117200D01*
X86500Y98150D02*
X92850Y91800D01*
X105550Y91800D01*
D11*
X15200Y70100D02*
X12700Y70100D01*
D12*
X15200Y70100D02*
X15200Y72600D01*
X15200Y70100D02*
X15200Y67600D01*
X27200Y82600D02*
X35200Y82600D01*
X47200Y72600D02*
X47200Y67600D01*
X35200Y57600D02*
X27200Y57600D01*
D13*
X126425Y92085D02*
X126425Y90712D01*
X126424Y90712D02*
X126340Y90707D01*
X126256Y90698D01*
X126173Y90684D01*
X126090Y90667D01*
X126009Y90646D01*
X125928Y90622D01*
X125849Y90593D01*
X125771Y90561D01*
X125694Y90525D01*
X125620Y90486D01*
X125547Y90444D01*
X125476Y90398D01*
X125408Y90348D01*
X125342Y90296D01*
X125278Y90241D01*
X125217Y90183D01*
X125159Y90122D01*
X125104Y90058D01*
X125052Y89992D01*
X125002Y89924D01*
X124956Y89853D01*
X124914Y89780D01*
X124875Y89706D01*
X124839Y89629D01*
X124807Y89551D01*
X124778Y89472D01*
X124754Y89391D01*
X124733Y89310D01*
X124716Y89227D01*
X124702Y89144D01*
X124693Y89060D01*
X124688Y88976D01*
X123315Y88975D01*
X123315Y88976D01*
X123319Y89086D01*
X123328Y89196D01*
X123340Y89306D01*
X123356Y89415D01*
X123376Y89523D01*
X123399Y89631D01*
X123426Y89738D01*
X123457Y89844D01*
X123492Y89949D01*
X123530Y90052D01*
X123571Y90154D01*
X123616Y90255D01*
X123665Y90354D01*
X123717Y90451D01*
X123772Y90546D01*
X123831Y90640D01*
X123893Y90731D01*
X123958Y90820D01*
X124026Y90907D01*
X124097Y90992D01*
X124171Y91074D01*
X124247Y91153D01*
X124326Y91229D01*
X124408Y91303D01*
X124493Y91374D01*
X124580Y91442D01*
X124669Y91507D01*
X124760Y91569D01*
X124854Y91628D01*
X124949Y91683D01*
X125046Y91735D01*
X125145Y91784D01*
X125246Y91829D01*
X125348Y91870D01*
X125451Y91908D01*
X125556Y91943D01*
X125662Y91974D01*
X125769Y92001D01*
X125877Y92024D01*
X125985Y92044D01*
X126094Y92060D01*
X126204Y92072D01*
X126314Y92081D01*
X126424Y92085D01*
X126424Y91942D01*
X126316Y91937D01*
X126209Y91929D01*
X126102Y91917D01*
X125996Y91901D01*
X125890Y91881D01*
X125785Y91858D01*
X125681Y91831D01*
X125578Y91800D01*
X125476Y91765D01*
X125375Y91727D01*
X125276Y91686D01*
X125178Y91641D01*
X125082Y91592D01*
X124988Y91541D01*
X124895Y91485D01*
X124805Y91427D01*
X124716Y91366D01*
X124630Y91301D01*
X124547Y91233D01*
X124465Y91163D01*
X124387Y91089D01*
X124311Y91013D01*
X124237Y90935D01*
X124167Y90853D01*
X124099Y90770D01*
X124034Y90684D01*
X123973Y90595D01*
X123915Y90505D01*
X123859Y90412D01*
X123808Y90318D01*
X123759Y90222D01*
X123714Y90124D01*
X123673Y90025D01*
X123635Y89924D01*
X123600Y89822D01*
X123569Y89719D01*
X123542Y89615D01*
X123519Y89510D01*
X123499Y89404D01*
X123483Y89298D01*
X123471Y89191D01*
X123463Y89084D01*
X123458Y88976D01*
X123601Y88976D01*
X123606Y89081D01*
X123614Y89185D01*
X123626Y89289D01*
X123642Y89393D01*
X123662Y89496D01*
X123685Y89598D01*
X123712Y89699D01*
X123743Y89800D01*
X123777Y89899D01*
X123815Y89996D01*
X123857Y90093D01*
X123901Y90188D01*
X123950Y90281D01*
X124001Y90372D01*
X124056Y90461D01*
X124114Y90549D01*
X124175Y90634D01*
X124239Y90717D01*
X124307Y90797D01*
X124377Y90875D01*
X124449Y90951D01*
X124525Y91023D01*
X124603Y91093D01*
X124683Y91161D01*
X124766Y91225D01*
X124851Y91286D01*
X124939Y91344D01*
X125028Y91399D01*
X125119Y91450D01*
X125212Y91499D01*
X125307Y91543D01*
X125404Y91585D01*
X125501Y91623D01*
X125600Y91657D01*
X125701Y91688D01*
X125802Y91715D01*
X125904Y91738D01*
X126007Y91758D01*
X126111Y91774D01*
X126215Y91786D01*
X126319Y91794D01*
X126424Y91799D01*
X126424Y91656D01*
X126320Y91651D01*
X126216Y91642D01*
X126112Y91630D01*
X126009Y91613D01*
X125906Y91592D01*
X125805Y91568D01*
X125704Y91540D01*
X125605Y91508D01*
X125507Y91472D01*
X125410Y91432D01*
X125315Y91389D01*
X125221Y91343D01*
X125130Y91292D01*
X125040Y91239D01*
X124953Y91182D01*
X124867Y91121D01*
X124784Y91058D01*
X124704Y90991D01*
X124626Y90922D01*
X124551Y90849D01*
X124478Y90774D01*
X124409Y90696D01*
X124342Y90616D01*
X124279Y90533D01*
X124218Y90447D01*
X124161Y90360D01*
X124108Y90270D01*
X124057Y90179D01*
X124011Y90085D01*
X123968Y89990D01*
X123928Y89893D01*
X123892Y89795D01*
X123860Y89696D01*
X123832Y89595D01*
X123808Y89494D01*
X123787Y89391D01*
X123770Y89288D01*
X123758Y89184D01*
X123749Y89080D01*
X123744Y88976D01*
X123887Y88976D01*
X123892Y89077D01*
X123901Y89178D01*
X123914Y89279D01*
X123930Y89379D01*
X123951Y89478D01*
X123975Y89577D01*
X124003Y89674D01*
X124035Y89770D01*
X124071Y89865D01*
X124110Y89959D01*
X124153Y90050D01*
X124199Y90141D01*
X124249Y90229D01*
X124302Y90315D01*
X124359Y90399D01*
X124418Y90481D01*
X124481Y90561D01*
X124547Y90638D01*
X124616Y90712D01*
X124688Y90784D01*
X124762Y90853D01*
X124839Y90919D01*
X124919Y90982D01*
X125001Y91041D01*
X125085Y91098D01*
X125171Y91151D01*
X125259Y91201D01*
X125350Y91247D01*
X125441Y91290D01*
X125535Y91329D01*
X125630Y91365D01*
X125726Y91397D01*
X125823Y91425D01*
X125922Y91449D01*
X126021Y91470D01*
X126121Y91486D01*
X126222Y91499D01*
X126323Y91508D01*
X126424Y91513D01*
X126424Y91370D01*
X126326Y91365D01*
X126228Y91356D01*
X126131Y91343D01*
X126034Y91327D01*
X125938Y91306D01*
X125843Y91282D01*
X125749Y91254D01*
X125656Y91222D01*
X125565Y91187D01*
X125475Y91148D01*
X125386Y91106D01*
X125299Y91060D01*
X125215Y91010D01*
X125132Y90958D01*
X125051Y90902D01*
X124973Y90843D01*
X124897Y90780D01*
X124823Y90715D01*
X124753Y90647D01*
X124685Y90577D01*
X124620Y90503D01*
X124557Y90427D01*
X124498Y90349D01*
X124442Y90268D01*
X124390Y90185D01*
X124340Y90101D01*
X124294Y90014D01*
X124252Y89925D01*
X124213Y89835D01*
X124178Y89744D01*
X124146Y89651D01*
X124118Y89557D01*
X124094Y89462D01*
X124073Y89366D01*
X124057Y89269D01*
X124044Y89172D01*
X124035Y89074D01*
X124030Y88976D01*
X124173Y88976D01*
X124178Y89071D01*
X124187Y89165D01*
X124200Y89259D01*
X124216Y89352D01*
X124237Y89445D01*
X124261Y89536D01*
X124288Y89627D01*
X124320Y89716D01*
X124355Y89804D01*
X124393Y89891D01*
X124435Y89975D01*
X124481Y90059D01*
X124530Y90140D01*
X124582Y90219D01*
X124637Y90296D01*
X124695Y90370D01*
X124757Y90443D01*
X124821Y90512D01*
X124888Y90579D01*
X124957Y90643D01*
X125030Y90705D01*
X125104Y90763D01*
X125181Y90818D01*
X125260Y90870D01*
X125341Y90919D01*
X125425Y90965D01*
X125509Y91007D01*
X125596Y91045D01*
X125684Y91080D01*
X125773Y91112D01*
X125864Y91139D01*
X125955Y91163D01*
X126048Y91184D01*
X126141Y91200D01*
X126235Y91213D01*
X126329Y91222D01*
X126424Y91227D01*
X126424Y91084D01*
X126333Y91079D01*
X126242Y91070D01*
X126152Y91057D01*
X126063Y91041D01*
X125974Y91021D01*
X125886Y90997D01*
X125799Y90969D01*
X125713Y90938D01*
X125629Y90904D01*
X125546Y90866D01*
X125465Y90824D01*
X125386Y90779D01*
X125308Y90731D01*
X125233Y90680D01*
X125160Y90626D01*
X125089Y90568D01*
X125021Y90508D01*
X124955Y90445D01*
X124892Y90379D01*
X124832Y90311D01*
X124774Y90240D01*
X124720Y90167D01*
X124669Y90092D01*
X124621Y90014D01*
X124576Y89935D01*
X124534Y89854D01*
X124496Y89771D01*
X124462Y89687D01*
X124431Y89601D01*
X124403Y89514D01*
X124379Y89426D01*
X124359Y89337D01*
X124343Y89248D01*
X124330Y89158D01*
X124321Y89067D01*
X124316Y88976D01*
X124459Y88976D01*
X124465Y89066D01*
X124474Y89155D01*
X124487Y89244D01*
X124504Y89332D01*
X124525Y89420D01*
X124550Y89506D01*
X124579Y89591D01*
X124611Y89675D01*
X124647Y89757D01*
X124686Y89838D01*
X124729Y89917D01*
X124776Y89994D01*
X124826Y90069D01*
X124879Y90141D01*
X124935Y90211D01*
X124994Y90279D01*
X125056Y90344D01*
X125121Y90406D01*
X125189Y90465D01*
X125259Y90521D01*
X125331Y90574D01*
X125406Y90624D01*
X125483Y90671D01*
X125562Y90714D01*
X125643Y90753D01*
X125725Y90789D01*
X125809Y90821D01*
X125894Y90850D01*
X125980Y90875D01*
X126068Y90896D01*
X126156Y90913D01*
X126245Y90926D01*
X126334Y90935D01*
X126424Y90941D01*
X126424Y90797D01*
X126338Y90792D01*
X126253Y90783D01*
X126168Y90770D01*
X126084Y90753D01*
X126001Y90732D01*
X125919Y90708D01*
X125838Y90680D01*
X125758Y90648D01*
X125680Y90613D01*
X125603Y90574D01*
X125529Y90532D01*
X125456Y90486D01*
X125385Y90437D01*
X125317Y90386D01*
X125251Y90331D01*
X125188Y90273D01*
X125127Y90212D01*
X125069Y90149D01*
X125014Y90083D01*
X124963Y90015D01*
X124914Y89944D01*
X124868Y89871D01*
X124826Y89797D01*
X124787Y89720D01*
X124752Y89642D01*
X124720Y89562D01*
X124692Y89481D01*
X124668Y89399D01*
X124647Y89316D01*
X124630Y89232D01*
X124617Y89147D01*
X124608Y89062D01*
X124603Y88976D01*
D10*
X173500Y91400D02*
X173598Y91398D01*
X173696Y91392D01*
X173794Y91383D01*
X173891Y91369D01*
X173988Y91352D01*
X174084Y91331D01*
X174179Y91306D01*
X174273Y91278D01*
X174365Y91245D01*
X174457Y91210D01*
X174547Y91170D01*
X174635Y91128D01*
X174722Y91081D01*
X174806Y91032D01*
X174889Y90979D01*
X174969Y90923D01*
X175048Y90863D01*
X175124Y90801D01*
X175197Y90736D01*
X175268Y90668D01*
X175336Y90597D01*
X175401Y90524D01*
X175463Y90448D01*
X175523Y90369D01*
X175579Y90289D01*
X175632Y90206D01*
X175681Y90122D01*
X175728Y90035D01*
X175770Y89947D01*
X175810Y89857D01*
X175845Y89765D01*
X175878Y89673D01*
X175906Y89579D01*
X175931Y89484D01*
X175952Y89388D01*
X175969Y89291D01*
X175983Y89194D01*
X175992Y89096D01*
X175998Y88998D01*
X176000Y88900D01*
D13*
X173575Y40715D02*
X173575Y42088D01*
X173576Y42088D02*
X173660Y42093D01*
X173744Y42102D01*
X173827Y42116D01*
X173910Y42133D01*
X173991Y42154D01*
X174072Y42178D01*
X174151Y42207D01*
X174229Y42239D01*
X174306Y42275D01*
X174380Y42314D01*
X174453Y42356D01*
X174524Y42402D01*
X174592Y42452D01*
X174658Y42504D01*
X174722Y42559D01*
X174783Y42617D01*
X174841Y42678D01*
X174896Y42742D01*
X174948Y42808D01*
X174998Y42876D01*
X175044Y42947D01*
X175086Y43020D01*
X175125Y43094D01*
X175161Y43171D01*
X175193Y43249D01*
X175222Y43328D01*
X175246Y43409D01*
X175267Y43490D01*
X175284Y43573D01*
X175298Y43656D01*
X175307Y43740D01*
X175312Y43824D01*
X176685Y43825D01*
X176685Y43824D01*
X176681Y43714D01*
X176672Y43604D01*
X176660Y43494D01*
X176644Y43385D01*
X176624Y43277D01*
X176601Y43169D01*
X176574Y43062D01*
X176543Y42956D01*
X176508Y42851D01*
X176470Y42748D01*
X176429Y42646D01*
X176384Y42545D01*
X176335Y42446D01*
X176283Y42349D01*
X176228Y42254D01*
X176169Y42160D01*
X176107Y42069D01*
X176042Y41980D01*
X175974Y41893D01*
X175903Y41808D01*
X175829Y41726D01*
X175753Y41647D01*
X175674Y41571D01*
X175592Y41497D01*
X175507Y41426D01*
X175420Y41358D01*
X175331Y41293D01*
X175240Y41231D01*
X175146Y41172D01*
X175051Y41117D01*
X174954Y41065D01*
X174855Y41016D01*
X174754Y40971D01*
X174652Y40930D01*
X174549Y40892D01*
X174444Y40857D01*
X174338Y40826D01*
X174231Y40799D01*
X174123Y40776D01*
X174015Y40756D01*
X173906Y40740D01*
X173796Y40728D01*
X173686Y40719D01*
X173576Y40715D01*
X173576Y40858D01*
X173684Y40863D01*
X173791Y40871D01*
X173898Y40883D01*
X174004Y40899D01*
X174110Y40919D01*
X174215Y40942D01*
X174319Y40969D01*
X174422Y41000D01*
X174524Y41035D01*
X174625Y41073D01*
X174724Y41114D01*
X174822Y41159D01*
X174918Y41208D01*
X175012Y41259D01*
X175105Y41315D01*
X175195Y41373D01*
X175284Y41434D01*
X175370Y41499D01*
X175453Y41567D01*
X175535Y41637D01*
X175613Y41711D01*
X175689Y41787D01*
X175763Y41865D01*
X175833Y41947D01*
X175901Y42030D01*
X175966Y42116D01*
X176027Y42205D01*
X176085Y42295D01*
X176141Y42388D01*
X176192Y42482D01*
X176241Y42578D01*
X176286Y42676D01*
X176327Y42775D01*
X176365Y42876D01*
X176400Y42978D01*
X176431Y43081D01*
X176458Y43185D01*
X176481Y43290D01*
X176501Y43396D01*
X176517Y43502D01*
X176529Y43609D01*
X176537Y43716D01*
X176542Y43824D01*
X176399Y43824D01*
X176394Y43719D01*
X176386Y43615D01*
X176374Y43511D01*
X176358Y43407D01*
X176338Y43304D01*
X176315Y43202D01*
X176288Y43101D01*
X176257Y43000D01*
X176223Y42901D01*
X176185Y42804D01*
X176143Y42707D01*
X176099Y42612D01*
X176050Y42519D01*
X175999Y42428D01*
X175944Y42339D01*
X175886Y42251D01*
X175825Y42166D01*
X175761Y42083D01*
X175693Y42003D01*
X175623Y41925D01*
X175551Y41849D01*
X175475Y41777D01*
X175397Y41707D01*
X175317Y41639D01*
X175234Y41575D01*
X175149Y41514D01*
X175061Y41456D01*
X174972Y41401D01*
X174881Y41350D01*
X174788Y41301D01*
X174693Y41257D01*
X174596Y41215D01*
X174499Y41177D01*
X174400Y41143D01*
X174299Y41112D01*
X174198Y41085D01*
X174096Y41062D01*
X173993Y41042D01*
X173889Y41026D01*
X173785Y41014D01*
X173681Y41006D01*
X173576Y41001D01*
X173576Y41144D01*
X173680Y41149D01*
X173784Y41158D01*
X173888Y41170D01*
X173991Y41187D01*
X174094Y41208D01*
X174195Y41232D01*
X174296Y41260D01*
X174395Y41292D01*
X174493Y41328D01*
X174590Y41368D01*
X174685Y41411D01*
X174779Y41457D01*
X174870Y41508D01*
X174960Y41561D01*
X175047Y41618D01*
X175133Y41679D01*
X175216Y41742D01*
X175296Y41809D01*
X175374Y41878D01*
X175449Y41951D01*
X175522Y42026D01*
X175591Y42104D01*
X175658Y42184D01*
X175721Y42267D01*
X175782Y42353D01*
X175839Y42440D01*
X175892Y42530D01*
X175943Y42621D01*
X175989Y42715D01*
X176032Y42810D01*
X176072Y42907D01*
X176108Y43005D01*
X176140Y43104D01*
X176168Y43205D01*
X176192Y43306D01*
X176213Y43409D01*
X176230Y43512D01*
X176242Y43616D01*
X176251Y43720D01*
X176256Y43824D01*
X176113Y43824D01*
X176108Y43723D01*
X176099Y43622D01*
X176086Y43521D01*
X176070Y43421D01*
X176049Y43322D01*
X176025Y43223D01*
X175997Y43126D01*
X175965Y43030D01*
X175929Y42935D01*
X175890Y42841D01*
X175847Y42750D01*
X175801Y42659D01*
X175751Y42571D01*
X175698Y42485D01*
X175641Y42401D01*
X175582Y42319D01*
X175519Y42239D01*
X175453Y42162D01*
X175384Y42088D01*
X175312Y42016D01*
X175238Y41947D01*
X175161Y41881D01*
X175081Y41818D01*
X174999Y41759D01*
X174915Y41702D01*
X174829Y41649D01*
X174741Y41599D01*
X174650Y41553D01*
X174559Y41510D01*
X174465Y41471D01*
X174370Y41435D01*
X174274Y41403D01*
X174177Y41375D01*
X174078Y41351D01*
X173979Y41330D01*
X173879Y41314D01*
X173778Y41301D01*
X173677Y41292D01*
X173576Y41287D01*
X173576Y41430D01*
X173674Y41435D01*
X173772Y41444D01*
X173869Y41457D01*
X173966Y41473D01*
X174062Y41494D01*
X174157Y41518D01*
X174251Y41546D01*
X174344Y41578D01*
X174435Y41613D01*
X174525Y41652D01*
X174614Y41694D01*
X174701Y41740D01*
X174785Y41790D01*
X174868Y41842D01*
X174949Y41898D01*
X175027Y41957D01*
X175103Y42020D01*
X175177Y42085D01*
X175247Y42153D01*
X175315Y42223D01*
X175380Y42297D01*
X175443Y42373D01*
X175502Y42451D01*
X175558Y42532D01*
X175610Y42615D01*
X175660Y42699D01*
X175706Y42786D01*
X175748Y42875D01*
X175787Y42965D01*
X175822Y43056D01*
X175854Y43149D01*
X175882Y43243D01*
X175906Y43338D01*
X175927Y43434D01*
X175943Y43531D01*
X175956Y43628D01*
X175965Y43726D01*
X175970Y43824D01*
X175827Y43824D01*
X175822Y43729D01*
X175813Y43635D01*
X175800Y43541D01*
X175784Y43448D01*
X175763Y43355D01*
X175739Y43264D01*
X175712Y43173D01*
X175680Y43084D01*
X175645Y42996D01*
X175607Y42909D01*
X175565Y42825D01*
X175519Y42741D01*
X175470Y42660D01*
X175418Y42581D01*
X175363Y42504D01*
X175305Y42430D01*
X175243Y42357D01*
X175179Y42288D01*
X175112Y42221D01*
X175043Y42157D01*
X174970Y42095D01*
X174896Y42037D01*
X174819Y41982D01*
X174740Y41930D01*
X174659Y41881D01*
X174575Y41835D01*
X174491Y41793D01*
X174404Y41755D01*
X174316Y41720D01*
X174227Y41688D01*
X174136Y41661D01*
X174045Y41637D01*
X173952Y41616D01*
X173859Y41600D01*
X173765Y41587D01*
X173671Y41578D01*
X173576Y41573D01*
X173576Y41716D01*
X173667Y41721D01*
X173758Y41730D01*
X173848Y41743D01*
X173937Y41759D01*
X174026Y41779D01*
X174114Y41803D01*
X174201Y41831D01*
X174287Y41862D01*
X174371Y41896D01*
X174454Y41934D01*
X174535Y41976D01*
X174614Y42021D01*
X174692Y42069D01*
X174767Y42120D01*
X174840Y42174D01*
X174911Y42232D01*
X174979Y42292D01*
X175045Y42355D01*
X175108Y42421D01*
X175168Y42489D01*
X175226Y42560D01*
X175280Y42633D01*
X175331Y42708D01*
X175379Y42786D01*
X175424Y42865D01*
X175466Y42946D01*
X175504Y43029D01*
X175538Y43113D01*
X175569Y43199D01*
X175597Y43286D01*
X175621Y43374D01*
X175641Y43463D01*
X175657Y43552D01*
X175670Y43642D01*
X175679Y43733D01*
X175684Y43824D01*
X175541Y43824D01*
X175535Y43734D01*
X175526Y43645D01*
X175513Y43556D01*
X175496Y43468D01*
X175475Y43380D01*
X175450Y43294D01*
X175421Y43209D01*
X175389Y43125D01*
X175353Y43043D01*
X175314Y42962D01*
X175271Y42883D01*
X175224Y42806D01*
X175174Y42731D01*
X175121Y42659D01*
X175065Y42589D01*
X175006Y42521D01*
X174944Y42456D01*
X174879Y42394D01*
X174811Y42335D01*
X174741Y42279D01*
X174669Y42226D01*
X174594Y42176D01*
X174517Y42129D01*
X174438Y42086D01*
X174357Y42047D01*
X174275Y42011D01*
X174191Y41979D01*
X174106Y41950D01*
X174020Y41925D01*
X173932Y41904D01*
X173844Y41887D01*
X173755Y41874D01*
X173666Y41865D01*
X173576Y41859D01*
X173576Y42003D01*
X173662Y42008D01*
X173747Y42017D01*
X173832Y42030D01*
X173916Y42047D01*
X173999Y42068D01*
X174081Y42092D01*
X174162Y42120D01*
X174242Y42152D01*
X174320Y42187D01*
X174397Y42226D01*
X174471Y42268D01*
X174544Y42314D01*
X174615Y42363D01*
X174683Y42414D01*
X174749Y42469D01*
X174812Y42527D01*
X174873Y42588D01*
X174931Y42651D01*
X174986Y42717D01*
X175037Y42785D01*
X175086Y42856D01*
X175132Y42929D01*
X175174Y43003D01*
X175213Y43080D01*
X175248Y43158D01*
X175280Y43238D01*
X175308Y43319D01*
X175332Y43401D01*
X175353Y43484D01*
X175370Y43568D01*
X175383Y43653D01*
X175392Y43738D01*
X175397Y43824D01*
X123315Y43825D02*
X124688Y43825D01*
X124688Y43824D02*
X124693Y43740D01*
X124702Y43656D01*
X124716Y43573D01*
X124733Y43490D01*
X124754Y43409D01*
X124778Y43328D01*
X124807Y43249D01*
X124839Y43171D01*
X124875Y43094D01*
X124914Y43020D01*
X124956Y42947D01*
X125002Y42876D01*
X125052Y42808D01*
X125104Y42742D01*
X125159Y42678D01*
X125217Y42617D01*
X125278Y42559D01*
X125342Y42504D01*
X125408Y42452D01*
X125476Y42402D01*
X125547Y42356D01*
X125620Y42314D01*
X125694Y42275D01*
X125771Y42239D01*
X125849Y42207D01*
X125928Y42178D01*
X126009Y42154D01*
X126090Y42133D01*
X126173Y42116D01*
X126256Y42102D01*
X126340Y42093D01*
X126424Y42088D01*
X126425Y40715D01*
X126424Y40715D01*
X126314Y40719D01*
X126204Y40728D01*
X126094Y40740D01*
X125985Y40756D01*
X125877Y40776D01*
X125769Y40799D01*
X125662Y40826D01*
X125556Y40857D01*
X125451Y40892D01*
X125348Y40930D01*
X125246Y40971D01*
X125145Y41016D01*
X125046Y41065D01*
X124949Y41117D01*
X124854Y41172D01*
X124760Y41231D01*
X124669Y41293D01*
X124580Y41358D01*
X124493Y41426D01*
X124408Y41497D01*
X124326Y41571D01*
X124247Y41647D01*
X124171Y41726D01*
X124097Y41808D01*
X124026Y41893D01*
X123958Y41980D01*
X123893Y42069D01*
X123831Y42160D01*
X123772Y42254D01*
X123717Y42349D01*
X123665Y42446D01*
X123616Y42545D01*
X123571Y42646D01*
X123530Y42748D01*
X123492Y42851D01*
X123457Y42956D01*
X123426Y43062D01*
X123399Y43169D01*
X123376Y43277D01*
X123356Y43385D01*
X123340Y43494D01*
X123328Y43604D01*
X123319Y43714D01*
X123315Y43824D01*
X123458Y43824D01*
X123463Y43716D01*
X123471Y43609D01*
X123483Y43502D01*
X123499Y43396D01*
X123519Y43290D01*
X123542Y43185D01*
X123569Y43081D01*
X123600Y42978D01*
X123635Y42876D01*
X123673Y42775D01*
X123714Y42676D01*
X123759Y42578D01*
X123808Y42482D01*
X123859Y42388D01*
X123915Y42295D01*
X123973Y42205D01*
X124034Y42116D01*
X124099Y42030D01*
X124167Y41947D01*
X124237Y41865D01*
X124311Y41787D01*
X124387Y41711D01*
X124465Y41637D01*
X124547Y41567D01*
X124630Y41499D01*
X124716Y41434D01*
X124805Y41373D01*
X124895Y41315D01*
X124988Y41259D01*
X125082Y41208D01*
X125178Y41159D01*
X125276Y41114D01*
X125375Y41073D01*
X125476Y41035D01*
X125578Y41000D01*
X125681Y40969D01*
X125785Y40942D01*
X125890Y40919D01*
X125996Y40899D01*
X126102Y40883D01*
X126209Y40871D01*
X126316Y40863D01*
X126424Y40858D01*
X126424Y41001D01*
X126319Y41006D01*
X126215Y41014D01*
X126111Y41026D01*
X126007Y41042D01*
X125904Y41062D01*
X125802Y41085D01*
X125701Y41112D01*
X125600Y41143D01*
X125501Y41177D01*
X125404Y41215D01*
X125307Y41257D01*
X125212Y41301D01*
X125119Y41350D01*
X125028Y41401D01*
X124939Y41456D01*
X124851Y41514D01*
X124766Y41575D01*
X124683Y41639D01*
X124603Y41707D01*
X124525Y41777D01*
X124449Y41849D01*
X124377Y41925D01*
X124307Y42003D01*
X124239Y42083D01*
X124175Y42166D01*
X124114Y42251D01*
X124056Y42339D01*
X124001Y42428D01*
X123950Y42519D01*
X123901Y42612D01*
X123857Y42707D01*
X123815Y42804D01*
X123777Y42901D01*
X123743Y43000D01*
X123712Y43101D01*
X123685Y43202D01*
X123662Y43304D01*
X123642Y43407D01*
X123626Y43511D01*
X123614Y43615D01*
X123606Y43719D01*
X123601Y43824D01*
X123744Y43824D01*
X123749Y43720D01*
X123758Y43616D01*
X123770Y43512D01*
X123787Y43409D01*
X123808Y43306D01*
X123832Y43205D01*
X123860Y43104D01*
X123892Y43005D01*
X123928Y42907D01*
X123968Y42810D01*
X124011Y42715D01*
X124057Y42621D01*
X124108Y42530D01*
X124161Y42440D01*
X124218Y42353D01*
X124279Y42267D01*
X124342Y42184D01*
X124409Y42104D01*
X124478Y42026D01*
X124551Y41951D01*
X124626Y41878D01*
X124704Y41809D01*
X124784Y41742D01*
X124867Y41679D01*
X124953Y41618D01*
X125040Y41561D01*
X125130Y41508D01*
X125221Y41457D01*
X125315Y41411D01*
X125410Y41368D01*
X125507Y41328D01*
X125605Y41292D01*
X125704Y41260D01*
X125805Y41232D01*
X125906Y41208D01*
X126009Y41187D01*
X126112Y41170D01*
X126216Y41158D01*
X126320Y41149D01*
X126424Y41144D01*
X126424Y41287D01*
X126323Y41292D01*
X126222Y41301D01*
X126121Y41314D01*
X126021Y41330D01*
X125922Y41351D01*
X125823Y41375D01*
X125726Y41403D01*
X125630Y41435D01*
X125535Y41471D01*
X125441Y41510D01*
X125350Y41553D01*
X125259Y41599D01*
X125171Y41649D01*
X125085Y41702D01*
X125001Y41759D01*
X124919Y41818D01*
X124839Y41881D01*
X124762Y41947D01*
X124688Y42016D01*
X124616Y42088D01*
X124547Y42162D01*
X124481Y42239D01*
X124418Y42319D01*
X124359Y42401D01*
X124302Y42485D01*
X124249Y42571D01*
X124199Y42659D01*
X124153Y42750D01*
X124110Y42841D01*
X124071Y42935D01*
X124035Y43030D01*
X124003Y43126D01*
X123975Y43223D01*
X123951Y43322D01*
X123930Y43421D01*
X123914Y43521D01*
X123901Y43622D01*
X123892Y43723D01*
X123887Y43824D01*
X124030Y43824D01*
X124035Y43726D01*
X124044Y43628D01*
X124057Y43531D01*
X124073Y43434D01*
X124094Y43338D01*
X124118Y43243D01*
X124146Y43149D01*
X124178Y43056D01*
X124213Y42965D01*
X124252Y42875D01*
X124294Y42786D01*
X124340Y42699D01*
X124390Y42615D01*
X124442Y42532D01*
X124498Y42451D01*
X124557Y42373D01*
X124620Y42297D01*
X124685Y42223D01*
X124753Y42153D01*
X124823Y42085D01*
X124897Y42020D01*
X124973Y41957D01*
X125051Y41898D01*
X125132Y41842D01*
X125215Y41790D01*
X125299Y41740D01*
X125386Y41694D01*
X125475Y41652D01*
X125565Y41613D01*
X125656Y41578D01*
X125749Y41546D01*
X125843Y41518D01*
X125938Y41494D01*
X126034Y41473D01*
X126131Y41457D01*
X126228Y41444D01*
X126326Y41435D01*
X126424Y41430D01*
X126424Y41573D01*
X126329Y41578D01*
X126235Y41587D01*
X126141Y41600D01*
X126048Y41616D01*
X125955Y41637D01*
X125864Y41661D01*
X125773Y41688D01*
X125684Y41720D01*
X125596Y41755D01*
X125509Y41793D01*
X125425Y41835D01*
X125341Y41881D01*
X125260Y41930D01*
X125181Y41982D01*
X125104Y42037D01*
X125030Y42095D01*
X124957Y42157D01*
X124888Y42221D01*
X124821Y42288D01*
X124757Y42357D01*
X124695Y42430D01*
X124637Y42504D01*
X124582Y42581D01*
X124530Y42660D01*
X124481Y42741D01*
X124435Y42825D01*
X124393Y42909D01*
X124355Y42996D01*
X124320Y43084D01*
X124288Y43173D01*
X124261Y43264D01*
X124237Y43355D01*
X124216Y43448D01*
X124200Y43541D01*
X124187Y43635D01*
X124178Y43729D01*
X124173Y43824D01*
X124316Y43824D01*
X124321Y43733D01*
X124330Y43642D01*
X124343Y43552D01*
X124359Y43463D01*
X124379Y43374D01*
X124403Y43286D01*
X124431Y43199D01*
X124462Y43113D01*
X124496Y43029D01*
X124534Y42946D01*
X124576Y42865D01*
X124621Y42786D01*
X124669Y42708D01*
X124720Y42633D01*
X124774Y42560D01*
X124832Y42489D01*
X124892Y42421D01*
X124955Y42355D01*
X125021Y42292D01*
X125089Y42232D01*
X125160Y42174D01*
X125233Y42120D01*
X125308Y42069D01*
X125386Y42021D01*
X125465Y41976D01*
X125546Y41934D01*
X125629Y41896D01*
X125713Y41862D01*
X125799Y41831D01*
X125886Y41803D01*
X125974Y41779D01*
X126063Y41759D01*
X126152Y41743D01*
X126242Y41730D01*
X126333Y41721D01*
X126424Y41716D01*
X126424Y41859D01*
X126334Y41865D01*
X126245Y41874D01*
X126156Y41887D01*
X126068Y41904D01*
X125980Y41925D01*
X125894Y41950D01*
X125809Y41979D01*
X125725Y42011D01*
X125643Y42047D01*
X125562Y42086D01*
X125483Y42129D01*
X125406Y42176D01*
X125331Y42226D01*
X125259Y42279D01*
X125189Y42335D01*
X125121Y42394D01*
X125056Y42456D01*
X124994Y42521D01*
X124935Y42589D01*
X124879Y42659D01*
X124826Y42731D01*
X124776Y42806D01*
X124729Y42883D01*
X124686Y42962D01*
X124647Y43043D01*
X124611Y43125D01*
X124579Y43209D01*
X124550Y43294D01*
X124525Y43380D01*
X124504Y43468D01*
X124487Y43556D01*
X124474Y43645D01*
X124465Y43734D01*
X124459Y43824D01*
X124603Y43824D01*
X124608Y43738D01*
X124617Y43653D01*
X124630Y43568D01*
X124647Y43484D01*
X124668Y43401D01*
X124692Y43319D01*
X124720Y43238D01*
X124752Y43158D01*
X124787Y43080D01*
X124826Y43003D01*
X124868Y42929D01*
X124914Y42856D01*
X124963Y42785D01*
X125014Y42717D01*
X125069Y42651D01*
X125127Y42588D01*
X125188Y42527D01*
X125251Y42469D01*
X125317Y42414D01*
X125385Y42363D01*
X125456Y42314D01*
X125529Y42268D01*
X125603Y42226D01*
X125680Y42187D01*
X125758Y42152D01*
X125838Y42120D01*
X125919Y42092D01*
X126001Y42068D01*
X126084Y42047D01*
X126168Y42030D01*
X126253Y42017D01*
X126338Y42008D01*
X126424Y42003D01*
D10*
X126600Y91400D02*
X127900Y91400D01*
X134100Y91400D02*
X140500Y91400D01*
X146800Y91400D02*
X153200Y91400D01*
X159500Y91400D02*
X165900Y91400D01*
X172100Y91400D02*
X173600Y91400D01*
X173300Y41400D02*
X172000Y41400D01*
X165900Y41400D02*
X159400Y41400D01*
X153200Y41400D02*
X146700Y41400D01*
X140500Y41400D02*
X134100Y41400D01*
X127900Y41400D02*
X126600Y41400D01*
X124000Y44000D02*
X124000Y88900D01*
X176000Y88900D02*
X176000Y43900D01*
D14*
X130800Y55250D02*
X130802Y55391D01*
X130808Y55532D01*
X130818Y55672D01*
X130832Y55812D01*
X130850Y55952D01*
X130871Y56091D01*
X130897Y56230D01*
X130926Y56368D01*
X130960Y56504D01*
X130997Y56640D01*
X131038Y56775D01*
X131083Y56909D01*
X131132Y57041D01*
X131184Y57172D01*
X131240Y57301D01*
X131300Y57428D01*
X131363Y57554D01*
X131429Y57678D01*
X131500Y57801D01*
X131573Y57921D01*
X131650Y58039D01*
X131730Y58155D01*
X131814Y58268D01*
X131900Y58379D01*
X131990Y58488D01*
X132083Y58594D01*
X132178Y58697D01*
X132277Y58798D01*
X132378Y58896D01*
X132482Y58991D01*
X132589Y59083D01*
X132698Y59172D01*
X132810Y59257D01*
X132924Y59340D01*
X133040Y59420D01*
X133159Y59496D01*
X133280Y59568D01*
X133402Y59638D01*
X133527Y59703D01*
X133653Y59766D01*
X133781Y59824D01*
X133911Y59879D01*
X134042Y59931D01*
X134175Y59978D01*
X134309Y60022D01*
X134444Y60063D01*
X134580Y60099D01*
X134717Y60131D01*
X134855Y60160D01*
X134993Y60185D01*
X135133Y60205D01*
X135273Y60222D01*
X135413Y60235D01*
X135554Y60244D01*
X135694Y60249D01*
X135835Y60250D01*
X135976Y60247D01*
X136117Y60240D01*
X136257Y60229D01*
X136397Y60214D01*
X136537Y60195D01*
X136676Y60173D01*
X136814Y60146D01*
X136952Y60116D01*
X137088Y60081D01*
X137224Y60043D01*
X137358Y60001D01*
X137492Y59955D01*
X137624Y59906D01*
X137754Y59852D01*
X137883Y59795D01*
X138010Y59735D01*
X138136Y59671D01*
X138259Y59603D01*
X138381Y59532D01*
X138501Y59458D01*
X138618Y59380D01*
X138733Y59299D01*
X138846Y59215D01*
X138957Y59128D01*
X139065Y59037D01*
X139170Y58944D01*
X139273Y58847D01*
X139373Y58748D01*
X139470Y58646D01*
X139564Y58541D01*
X139655Y58434D01*
X139743Y58324D01*
X139828Y58212D01*
X139910Y58097D01*
X139989Y57980D01*
X140064Y57861D01*
X140136Y57740D01*
X140204Y57617D01*
X140269Y57492D01*
X140331Y57365D01*
X140388Y57236D01*
X140443Y57106D01*
X140493Y56975D01*
X140540Y56842D01*
X140583Y56708D01*
X140622Y56572D01*
X140657Y56436D01*
X140689Y56299D01*
X140716Y56161D01*
X140740Y56022D01*
X140760Y55882D01*
X140776Y55742D01*
X140788Y55602D01*
X140796Y55461D01*
X140800Y55320D01*
X140800Y55180D01*
X140796Y55039D01*
X140788Y54898D01*
X140776Y54758D01*
X140760Y54618D01*
X140740Y54478D01*
X140716Y54339D01*
X140689Y54201D01*
X140657Y54064D01*
X140622Y53928D01*
X140583Y53792D01*
X140540Y53658D01*
X140493Y53525D01*
X140443Y53394D01*
X140388Y53264D01*
X140331Y53135D01*
X140269Y53008D01*
X140204Y52883D01*
X140136Y52760D01*
X140064Y52639D01*
X139989Y52520D01*
X139910Y52403D01*
X139828Y52288D01*
X139743Y52176D01*
X139655Y52066D01*
X139564Y51959D01*
X139470Y51854D01*
X139373Y51752D01*
X139273Y51653D01*
X139170Y51556D01*
X139065Y51463D01*
X138957Y51372D01*
X138846Y51285D01*
X138733Y51201D01*
X138618Y51120D01*
X138501Y51042D01*
X138381Y50968D01*
X138259Y50897D01*
X138136Y50829D01*
X138010Y50765D01*
X137883Y50705D01*
X137754Y50648D01*
X137624Y50594D01*
X137492Y50545D01*
X137358Y50499D01*
X137224Y50457D01*
X137088Y50419D01*
X136952Y50384D01*
X136814Y50354D01*
X136676Y50327D01*
X136537Y50305D01*
X136397Y50286D01*
X136257Y50271D01*
X136117Y50260D01*
X135976Y50253D01*
X135835Y50250D01*
X135694Y50251D01*
X135554Y50256D01*
X135413Y50265D01*
X135273Y50278D01*
X135133Y50295D01*
X134993Y50315D01*
X134855Y50340D01*
X134717Y50369D01*
X134580Y50401D01*
X134444Y50437D01*
X134309Y50478D01*
X134175Y50522D01*
X134042Y50569D01*
X133911Y50621D01*
X133781Y50676D01*
X133653Y50734D01*
X133527Y50797D01*
X133402Y50862D01*
X133280Y50932D01*
X133159Y51004D01*
X133040Y51080D01*
X132924Y51160D01*
X132810Y51243D01*
X132698Y51328D01*
X132589Y51417D01*
X132482Y51509D01*
X132378Y51604D01*
X132277Y51702D01*
X132178Y51803D01*
X132083Y51906D01*
X131990Y52012D01*
X131900Y52121D01*
X131814Y52232D01*
X131730Y52345D01*
X131650Y52461D01*
X131573Y52579D01*
X131500Y52699D01*
X131429Y52822D01*
X131363Y52946D01*
X131300Y53072D01*
X131240Y53199D01*
X131184Y53328D01*
X131132Y53459D01*
X131083Y53591D01*
X131038Y53725D01*
X130997Y53860D01*
X130960Y53996D01*
X130926Y54132D01*
X130897Y54270D01*
X130871Y54409D01*
X130850Y54548D01*
X130832Y54688D01*
X130818Y54828D01*
X130808Y54968D01*
X130802Y55109D01*
X130800Y55250D01*
M02*
