G04 EAGLE Gerber RS-274X export*
G75*
%MOMM*%
%FSLAX34Y34*%
%LPD*%
%INSoldermask Top*%
%IPPOS*%
%AMOC8*
5,1,8,0,0,1.08239X$1,22.5*%
G01*
%ADD10R,1.503200X1.703200*%
%ADD11C,1.727200*%
%ADD12R,1.503200X1.303200*%
%ADD13R,0.703200X2.403200*%
%ADD14C,0.959600*%


D10*
X90000Y56900D03*
X71000Y56900D03*
X73500Y76800D03*
X92500Y76800D03*
D11*
X23000Y35920D02*
X23000Y20680D01*
X48400Y20680D02*
X48400Y35920D01*
X73800Y35920D02*
X73800Y20680D01*
X99200Y20680D02*
X99200Y35920D01*
X23000Y96880D02*
X23000Y112120D01*
X48400Y112120D02*
X48400Y96880D01*
X73800Y96880D02*
X73800Y112120D01*
X99200Y112120D02*
X99200Y96880D01*
D12*
X19700Y79100D03*
X42700Y61100D03*
X42700Y79100D03*
X19700Y61100D03*
D13*
X130950Y34860D03*
X143550Y34860D03*
X156250Y34860D03*
X168950Y34860D03*
X130950Y97940D03*
X143650Y97940D03*
X156350Y97940D03*
X169050Y97940D03*
D14*
X119709Y72291D03*
X144000Y80000D03*
X172000Y112000D03*
X112900Y56900D03*
X168000Y56000D03*
X120000Y32000D03*
X107574Y64426D03*
X116000Y88000D03*
X164000Y80000D03*
X72000Y52000D03*
X140000Y52000D03*
M02*
