M48
;GenerationSoftware,Autodesk,EAGLE,9.2.0*%
;CreationDate,2020-03-06T21:57:00Z*%
FMAT,2
ICI,OFF
METRIC,TZ,000.000
T4C0.813
T3C1.016
T2C1.300
%
G90
M71
T2
X60981Y60935
X66061Y60935
X79985Y55859
X79985Y50779
X27961Y62205
X33041Y62205
T3
X41910Y3810
X80010Y3810
X44450Y3810
X46990Y3810
X49530Y3810
X52070Y3810
X62230Y3810
X64770Y3810
X67310Y3810
X69850Y3810
X72390Y3810
X74930Y3810
X77470Y3810
X52070Y59690
X39370Y3810
X36830Y3810
X34290Y3810
X24130Y3810
X21590Y3810
X19050Y3810
X16510Y3810
X13970Y3810
X11430Y3810
X8890Y3810
X6350Y3810
X46990Y59690
X49530Y59690
X56439Y54331
X56439Y49809
X62941Y54331
X62941Y49809
T4
X41910Y33020
X8890Y7620
X19050Y43180
X49530Y17780
X49530Y7620
X52070Y17780
X52070Y7620
X44450Y43180
X44450Y33020
X41910Y43180
X11430Y17780
X52070Y43180
X52070Y33020
X49530Y43180
X49530Y33020
X46990Y43180
X46990Y33020
X67310Y33020
X67310Y43180
X64770Y17780
X64770Y7620
X67310Y17780
X67310Y7620
X24130Y17780
X35560Y55880
X25400Y55880
X41910Y54610
X52070Y54610
X41910Y50800
X52070Y50800
X16510Y17780
X16510Y7620
X19050Y17780
X19050Y7620
X21590Y17780
X21590Y7620
X25400Y53340
X24130Y7620
X16510Y43180
X16510Y33020
X12700Y60960
X12700Y58420
X20320Y58420
X20320Y60960
X12700Y55880
X12700Y53340
X20320Y55880
X20320Y53340
X72390Y33020
X69850Y17780
X69850Y7620
X72390Y17780
X72390Y7620
X74930Y17780
X74930Y7620
X77470Y17780
X77470Y7620
X80010Y17780
X80010Y7620
X72390Y43180
X11430Y7620
X69850Y43180
X69850Y33020
X80010Y43180
X80010Y33020
X77470Y43180
X77470Y33020
X74930Y43180
X74930Y33020
X13970Y17780
X13970Y7620
X35560Y53340
X26670Y21590
X52070Y29210
X49530Y29210
X46990Y29210
X44450Y29210
X41910Y29210
X39370Y29210
X36830Y29210
X8890Y21590
X11430Y21590
X24130Y21590
X54610Y29210
X13970Y21590
X16510Y21590
X21590Y21590
X19050Y21590
X26670Y29210
X24130Y29210
X21590Y29210
X19050Y29210
X16510Y29210
X68580Y49530
X31750Y22860
X59690Y27940
X59690Y22860
X73660Y58420
X73660Y53340
X39370Y64770
X39370Y59690
X3810Y27940
X3810Y22860
X13970Y29210
X68580Y54610
X36830Y21590
X39370Y21590
X52070Y21590
X54610Y21590
X41910Y21590
X44450Y21590
X49530Y21590
X46990Y21590
X36830Y17780
X13970Y43180
X13970Y33020
X24130Y43180
X24130Y33020
X21590Y43180
X21590Y33020
X31750Y27940
X19050Y33020
X39370Y33020
X39370Y43180
X11430Y43180
X36830Y7620
X39370Y17780
X39370Y7620
X41910Y17780
X41910Y7620
X44450Y17780
X44450Y7620
X46990Y17780
X46990Y7620
X74930Y21590
X11430Y29210
X8890Y29210
X64770Y21590
X67310Y21590
X80010Y21590
X82550Y21590
X69850Y21590
X72390Y21590
X77470Y21590
X8890Y17780
X82550Y29210
X80010Y29210
X77470Y29210
X74930Y29210
X72390Y29210
X69850Y29210
X67310Y29210
X64770Y29210
X11430Y33020
M30