G04 EAGLE Gerber RS-274X export*
G75*
%MOMM*%
%FSLAX34Y34*%
%LPD*%
%INSoldermask Top*%
%IPPOS*%
%AMOC8*
5,1,8,0,0,1.08239X$1,22.5*%
G01*
%ADD10P,1.649562X8X112.500000*%
%ADD11C,1.727200*%
%ADD12P,1.649562X8X202.500000*%
%ADD13P,1.649562X8X292.500000*%
%ADD14P,1.649562X8X22.500000*%
%ADD15C,1.879600*%
%ADD16C,2.003200*%


D10*
X577850Y361950D03*
X577850Y412750D03*
X527050Y361950D03*
X527050Y412750D03*
D11*
X577850Y455930D02*
X577850Y471170D01*
X552450Y471170D02*
X552450Y455930D01*
X527050Y455930D02*
X527050Y471170D01*
D10*
X184150Y514350D03*
X203200Y501650D03*
X184150Y488950D03*
D12*
X107950Y387350D03*
X120650Y406400D03*
X133350Y387350D03*
D10*
X152400Y488950D03*
X152400Y590550D03*
X44450Y400050D03*
X44450Y501650D03*
X228600Y476250D03*
X228600Y577850D03*
D12*
X298450Y406400D03*
X196850Y406400D03*
D13*
X254000Y577850D03*
X254000Y476250D03*
D10*
X69850Y361950D03*
X69850Y463550D03*
D12*
X273050Y381000D03*
X171450Y381000D03*
X146050Y342900D03*
X44450Y342900D03*
X184150Y438150D03*
X82550Y438150D03*
D14*
X196850Y355600D03*
X298450Y355600D03*
X241300Y450850D03*
X228600Y431800D03*
X215900Y450850D03*
X107950Y488950D03*
X95250Y469900D03*
X82550Y488950D03*
D15*
X476250Y40132D02*
X476250Y23368D01*
X450850Y23368D02*
X450850Y40132D01*
X425450Y40132D02*
X425450Y23368D01*
X400050Y23368D02*
X400050Y40132D01*
X374650Y40132D02*
X374650Y23368D01*
X349250Y23368D02*
X349250Y40132D01*
X323850Y40132D02*
X323850Y23368D01*
X298450Y23368D02*
X298450Y40132D01*
X273050Y40132D02*
X273050Y23368D01*
X247650Y23368D02*
X247650Y40132D01*
X222250Y40132D02*
X222250Y23368D01*
X196850Y23368D02*
X196850Y40132D01*
X171450Y40132D02*
X171450Y23368D01*
X146050Y23368D02*
X146050Y40132D01*
X120650Y40132D02*
X120650Y23368D01*
X120650Y302768D02*
X120650Y319532D01*
X146050Y319532D02*
X146050Y302768D01*
X171450Y302768D02*
X171450Y319532D01*
X196850Y319532D02*
X196850Y302768D01*
X222250Y302768D02*
X222250Y319532D01*
X247650Y319532D02*
X247650Y302768D01*
X273050Y302768D02*
X273050Y319532D01*
X298450Y319532D02*
X298450Y302768D01*
X323850Y302768D02*
X323850Y319532D01*
X349250Y319532D02*
X349250Y302768D01*
X374650Y302768D02*
X374650Y319532D01*
X400050Y319532D02*
X400050Y302768D01*
X425450Y302768D02*
X425450Y319532D01*
X450850Y319532D02*
X450850Y302768D01*
X476250Y302768D02*
X476250Y319532D01*
D16*
X450850Y565150D03*
X400050Y565150D03*
X577850Y565150D03*
X527050Y565150D03*
X107950Y565150D03*
X57150Y565150D03*
D10*
X279400Y476250D03*
X279400Y577850D03*
M02*
