G04 EAGLE Gerber RS-274X export*
G75*
%MOMM*%
%FSLAX34Y34*%
%LPD*%
%INTop Copper*%
%IPPOS*%
%AMOC8*
5,1,8,0,0,1.08239X$1,22.5*%
G01*
%ADD10C,0.152400*%
%ADD11P,1.732040X8X292.500000*%
%ADD12P,1.732040X8X112.500000*%
%ADD13C,1.320800*%
%ADD14C,1.524000*%
%ADD15P,1.429621X8X112.500000*%
%ADD16P,1.429621X8X292.500000*%
%ADD17P,1.429621X8X202.500000*%
%ADD18P,1.429621X8X22.500000*%
%ADD19C,1.320800*%
%ADD20C,2.000000*%
%ADD21C,0.254000*%


D10*
X42418Y456446D02*
X26162Y456446D01*
X33387Y456446D02*
X33387Y465477D01*
X26162Y465477D02*
X42418Y465477D01*
X38806Y472459D02*
X35193Y472459D01*
X35193Y472460D02*
X35074Y472462D01*
X34954Y472468D01*
X34835Y472478D01*
X34717Y472492D01*
X34598Y472509D01*
X34481Y472531D01*
X34364Y472556D01*
X34249Y472586D01*
X34134Y472619D01*
X34020Y472656D01*
X33908Y472696D01*
X33797Y472741D01*
X33688Y472789D01*
X33580Y472840D01*
X33474Y472895D01*
X33370Y472954D01*
X33268Y473016D01*
X33168Y473081D01*
X33070Y473150D01*
X32974Y473222D01*
X32881Y473297D01*
X32791Y473374D01*
X32703Y473455D01*
X32618Y473539D01*
X32536Y473626D01*
X32456Y473715D01*
X32380Y473807D01*
X32306Y473901D01*
X32236Y473998D01*
X32169Y474096D01*
X32105Y474197D01*
X32045Y474301D01*
X31988Y474406D01*
X31935Y474513D01*
X31885Y474621D01*
X31839Y474731D01*
X31797Y474843D01*
X31758Y474956D01*
X31723Y475070D01*
X31692Y475185D01*
X31664Y475302D01*
X31641Y475419D01*
X31621Y475536D01*
X31605Y475655D01*
X31593Y475774D01*
X31585Y475893D01*
X31581Y476012D01*
X31581Y476132D01*
X31585Y476251D01*
X31593Y476370D01*
X31605Y476489D01*
X31621Y476608D01*
X31641Y476725D01*
X31664Y476842D01*
X31692Y476959D01*
X31723Y477074D01*
X31758Y477188D01*
X31797Y477301D01*
X31839Y477413D01*
X31885Y477523D01*
X31935Y477631D01*
X31988Y477738D01*
X32045Y477843D01*
X32105Y477947D01*
X32169Y478048D01*
X32236Y478146D01*
X32306Y478243D01*
X32380Y478337D01*
X32456Y478429D01*
X32536Y478518D01*
X32618Y478605D01*
X32703Y478689D01*
X32791Y478770D01*
X32881Y478847D01*
X32974Y478922D01*
X33070Y478994D01*
X33168Y479063D01*
X33268Y479128D01*
X33370Y479190D01*
X33474Y479249D01*
X33580Y479304D01*
X33688Y479355D01*
X33797Y479403D01*
X33908Y479448D01*
X34020Y479488D01*
X34134Y479525D01*
X34249Y479558D01*
X34364Y479588D01*
X34481Y479613D01*
X34598Y479635D01*
X34717Y479652D01*
X34835Y479666D01*
X34954Y479676D01*
X35074Y479682D01*
X35193Y479684D01*
X38806Y479684D01*
X38925Y479682D01*
X39045Y479676D01*
X39164Y479666D01*
X39282Y479652D01*
X39401Y479635D01*
X39518Y479613D01*
X39635Y479588D01*
X39750Y479558D01*
X39865Y479525D01*
X39979Y479488D01*
X40091Y479448D01*
X40202Y479403D01*
X40311Y479355D01*
X40419Y479304D01*
X40525Y479249D01*
X40629Y479190D01*
X40731Y479128D01*
X40831Y479063D01*
X40929Y478994D01*
X41025Y478922D01*
X41118Y478847D01*
X41208Y478770D01*
X41296Y478689D01*
X41381Y478605D01*
X41463Y478518D01*
X41543Y478429D01*
X41619Y478337D01*
X41693Y478243D01*
X41763Y478146D01*
X41830Y478048D01*
X41894Y477947D01*
X41954Y477843D01*
X42011Y477738D01*
X42064Y477631D01*
X42114Y477523D01*
X42160Y477413D01*
X42202Y477301D01*
X42241Y477188D01*
X42276Y477074D01*
X42307Y476959D01*
X42335Y476842D01*
X42358Y476725D01*
X42378Y476608D01*
X42394Y476489D01*
X42406Y476370D01*
X42414Y476251D01*
X42418Y476132D01*
X42418Y476012D01*
X42414Y475893D01*
X42406Y475774D01*
X42394Y475655D01*
X42378Y475536D01*
X42358Y475419D01*
X42335Y475302D01*
X42307Y475185D01*
X42276Y475070D01*
X42241Y474956D01*
X42202Y474843D01*
X42160Y474731D01*
X42114Y474621D01*
X42064Y474513D01*
X42011Y474406D01*
X41954Y474301D01*
X41894Y474197D01*
X41830Y474096D01*
X41763Y473998D01*
X41693Y473901D01*
X41619Y473807D01*
X41543Y473715D01*
X41463Y473626D01*
X41381Y473539D01*
X41296Y473455D01*
X41208Y473374D01*
X41118Y473297D01*
X41025Y473222D01*
X40929Y473150D01*
X40831Y473081D01*
X40731Y473016D01*
X40629Y472954D01*
X40525Y472895D01*
X40419Y472840D01*
X40311Y472789D01*
X40202Y472741D01*
X40091Y472696D01*
X39979Y472656D01*
X39865Y472619D01*
X39750Y472586D01*
X39635Y472556D01*
X39518Y472531D01*
X39401Y472509D01*
X39282Y472492D01*
X39164Y472478D01*
X39045Y472468D01*
X38925Y472462D01*
X38806Y472460D01*
X42418Y486696D02*
X26162Y486696D01*
X42418Y486696D02*
X42418Y493921D01*
X42418Y499518D02*
X31581Y499518D01*
X27065Y499067D02*
X26162Y499067D01*
X26162Y499970D01*
X27065Y499970D01*
X27065Y499067D01*
X36096Y506084D02*
X36096Y516921D01*
X42418Y524211D02*
X26162Y524211D01*
X42418Y524211D02*
X42418Y531436D01*
X42418Y537033D02*
X31581Y537033D01*
X27065Y536582D02*
X26162Y536582D01*
X26162Y537485D01*
X27065Y537485D01*
X27065Y536582D01*
X42418Y545957D02*
X42418Y550472D01*
X42418Y545957D02*
X42416Y545856D01*
X42410Y545755D01*
X42401Y545654D01*
X42388Y545553D01*
X42371Y545453D01*
X42350Y545354D01*
X42326Y545256D01*
X42298Y545159D01*
X42266Y545062D01*
X42231Y544967D01*
X42192Y544874D01*
X42150Y544782D01*
X42104Y544691D01*
X42055Y544603D01*
X42003Y544516D01*
X41947Y544431D01*
X41889Y544348D01*
X41827Y544268D01*
X41762Y544190D01*
X41695Y544114D01*
X41625Y544041D01*
X41552Y543971D01*
X41476Y543904D01*
X41398Y543839D01*
X41318Y543777D01*
X41235Y543719D01*
X41150Y543663D01*
X41063Y543611D01*
X40975Y543562D01*
X40884Y543516D01*
X40792Y543474D01*
X40699Y543435D01*
X40604Y543400D01*
X40507Y543368D01*
X40410Y543340D01*
X40312Y543316D01*
X40213Y543295D01*
X40113Y543278D01*
X40012Y543265D01*
X39911Y543256D01*
X39810Y543250D01*
X39709Y543248D01*
X39709Y543247D02*
X34290Y543247D01*
X34290Y543248D02*
X34189Y543250D01*
X34088Y543256D01*
X33987Y543265D01*
X33886Y543278D01*
X33786Y543295D01*
X33687Y543316D01*
X33589Y543340D01*
X33492Y543368D01*
X33395Y543400D01*
X33300Y543435D01*
X33207Y543474D01*
X33115Y543516D01*
X33024Y543562D01*
X32936Y543611D01*
X32849Y543663D01*
X32764Y543719D01*
X32681Y543777D01*
X32601Y543839D01*
X32523Y543904D01*
X32447Y543971D01*
X32374Y544041D01*
X32304Y544114D01*
X32237Y544190D01*
X32172Y544268D01*
X32110Y544348D01*
X32052Y544431D01*
X31996Y544516D01*
X31944Y544603D01*
X31895Y544691D01*
X31849Y544782D01*
X31807Y544874D01*
X31768Y544967D01*
X31733Y545062D01*
X31701Y545159D01*
X31673Y545256D01*
X31649Y545354D01*
X31628Y545453D01*
X31611Y545553D01*
X31598Y545654D01*
X31589Y545755D01*
X31583Y545856D01*
X31581Y545957D01*
X31581Y550472D01*
X45127Y550472D01*
X45228Y550470D01*
X45329Y550464D01*
X45430Y550455D01*
X45531Y550442D01*
X45631Y550425D01*
X45730Y550404D01*
X45828Y550380D01*
X45925Y550352D01*
X46022Y550320D01*
X46117Y550285D01*
X46210Y550246D01*
X46302Y550204D01*
X46393Y550158D01*
X46482Y550109D01*
X46568Y550057D01*
X46653Y550001D01*
X46736Y549943D01*
X46816Y549881D01*
X46894Y549816D01*
X46970Y549749D01*
X47043Y549679D01*
X47113Y549606D01*
X47180Y549530D01*
X47245Y549452D01*
X47307Y549372D01*
X47365Y549289D01*
X47421Y549204D01*
X47473Y549118D01*
X47522Y549029D01*
X47568Y548938D01*
X47610Y548846D01*
X47649Y548753D01*
X47684Y548658D01*
X47716Y548561D01*
X47744Y548464D01*
X47768Y548366D01*
X47789Y548267D01*
X47806Y548167D01*
X47819Y548066D01*
X47828Y547965D01*
X47834Y547864D01*
X47836Y547763D01*
X47837Y547763D02*
X47837Y544151D01*
X42418Y557910D02*
X26162Y557910D01*
X31581Y557910D02*
X31581Y562425D01*
X31583Y562529D01*
X31589Y562632D01*
X31599Y562736D01*
X31613Y562839D01*
X31631Y562941D01*
X31652Y563042D01*
X31678Y563143D01*
X31707Y563242D01*
X31740Y563341D01*
X31777Y563438D01*
X31818Y563533D01*
X31862Y563627D01*
X31910Y563719D01*
X31961Y563809D01*
X32016Y563898D01*
X32074Y563984D01*
X32136Y564067D01*
X32200Y564149D01*
X32268Y564227D01*
X32338Y564303D01*
X32411Y564377D01*
X32488Y564447D01*
X32566Y564515D01*
X32648Y564579D01*
X32731Y564641D01*
X32817Y564699D01*
X32906Y564754D01*
X32996Y564805D01*
X33088Y564853D01*
X33182Y564897D01*
X33277Y564938D01*
X33374Y564975D01*
X33473Y565008D01*
X33572Y565037D01*
X33673Y565063D01*
X33774Y565084D01*
X33876Y565102D01*
X33979Y565116D01*
X34083Y565126D01*
X34186Y565132D01*
X34290Y565134D01*
X34290Y565135D02*
X42418Y565135D01*
X31581Y570681D02*
X31581Y576099D01*
X26162Y572487D02*
X39709Y572487D01*
X39810Y572489D01*
X39911Y572495D01*
X40012Y572504D01*
X40113Y572517D01*
X40213Y572534D01*
X40312Y572555D01*
X40410Y572579D01*
X40507Y572607D01*
X40604Y572639D01*
X40699Y572674D01*
X40792Y572713D01*
X40884Y572755D01*
X40975Y572801D01*
X41063Y572850D01*
X41150Y572902D01*
X41235Y572958D01*
X41318Y573016D01*
X41398Y573078D01*
X41476Y573143D01*
X41552Y573210D01*
X41625Y573280D01*
X41695Y573353D01*
X41762Y573429D01*
X41827Y573507D01*
X41889Y573587D01*
X41947Y573670D01*
X42003Y573755D01*
X42055Y573842D01*
X42104Y573930D01*
X42150Y574021D01*
X42192Y574113D01*
X42231Y574206D01*
X42266Y574301D01*
X42298Y574398D01*
X42326Y574495D01*
X42350Y574593D01*
X42371Y574692D01*
X42388Y574792D01*
X42401Y574893D01*
X42410Y574994D01*
X42416Y575095D01*
X42418Y575196D01*
X42418Y576099D01*
X42418Y595251D02*
X42416Y595369D01*
X42410Y595487D01*
X42401Y595605D01*
X42387Y595722D01*
X42370Y595839D01*
X42349Y595956D01*
X42324Y596071D01*
X42295Y596186D01*
X42262Y596300D01*
X42226Y596412D01*
X42186Y596523D01*
X42143Y596633D01*
X42096Y596742D01*
X42046Y596849D01*
X41991Y596954D01*
X41934Y597057D01*
X41873Y597158D01*
X41809Y597258D01*
X41742Y597355D01*
X41672Y597450D01*
X41598Y597542D01*
X41522Y597633D01*
X41442Y597720D01*
X41360Y597805D01*
X41275Y597887D01*
X41188Y597967D01*
X41097Y598043D01*
X41005Y598117D01*
X40910Y598187D01*
X40813Y598254D01*
X40713Y598318D01*
X40612Y598379D01*
X40509Y598436D01*
X40404Y598491D01*
X40297Y598541D01*
X40188Y598588D01*
X40078Y598631D01*
X39967Y598671D01*
X39855Y598707D01*
X39741Y598740D01*
X39626Y598769D01*
X39511Y598794D01*
X39394Y598815D01*
X39277Y598832D01*
X39160Y598846D01*
X39042Y598855D01*
X38924Y598861D01*
X38806Y598863D01*
X42418Y595251D02*
X42416Y595068D01*
X42409Y594886D01*
X42398Y594704D01*
X42383Y594522D01*
X42363Y594340D01*
X42340Y594159D01*
X42311Y593979D01*
X42279Y593799D01*
X42242Y593620D01*
X42201Y593443D01*
X42155Y593266D01*
X42106Y593090D01*
X42052Y592916D01*
X41994Y592742D01*
X41932Y592571D01*
X41866Y592401D01*
X41795Y592232D01*
X41721Y592065D01*
X41643Y591900D01*
X41561Y591737D01*
X41475Y591576D01*
X41385Y591417D01*
X41291Y591260D01*
X41194Y591106D01*
X41093Y590954D01*
X40988Y590804D01*
X40880Y590657D01*
X40769Y590513D01*
X40654Y590371D01*
X40535Y590232D01*
X40413Y590096D01*
X40288Y589963D01*
X40160Y589833D01*
X29774Y590284D02*
X29656Y590286D01*
X29538Y590292D01*
X29420Y590301D01*
X29303Y590315D01*
X29186Y590332D01*
X29069Y590353D01*
X28954Y590378D01*
X28839Y590407D01*
X28725Y590440D01*
X28613Y590476D01*
X28502Y590516D01*
X28392Y590559D01*
X28283Y590606D01*
X28176Y590656D01*
X28071Y590711D01*
X27968Y590768D01*
X27867Y590829D01*
X27767Y590893D01*
X27670Y590960D01*
X27575Y591030D01*
X27483Y591104D01*
X27392Y591180D01*
X27305Y591260D01*
X27220Y591342D01*
X27138Y591427D01*
X27058Y591514D01*
X26982Y591605D01*
X26908Y591697D01*
X26838Y591792D01*
X26771Y591889D01*
X26707Y591989D01*
X26646Y592090D01*
X26589Y592193D01*
X26534Y592298D01*
X26484Y592405D01*
X26437Y592514D01*
X26394Y592624D01*
X26354Y592735D01*
X26318Y592847D01*
X26285Y592961D01*
X26256Y593076D01*
X26231Y593191D01*
X26210Y593308D01*
X26193Y593425D01*
X26179Y593542D01*
X26170Y593660D01*
X26164Y593778D01*
X26162Y593896D01*
X26164Y594057D01*
X26170Y594219D01*
X26179Y594380D01*
X26193Y594541D01*
X26210Y594701D01*
X26231Y594861D01*
X26256Y595021D01*
X26285Y595180D01*
X26317Y595338D01*
X26353Y595495D01*
X26393Y595651D01*
X26437Y595807D01*
X26485Y595961D01*
X26536Y596114D01*
X26590Y596266D01*
X26649Y596417D01*
X26710Y596566D01*
X26776Y596713D01*
X26845Y596859D01*
X26917Y597004D01*
X26993Y597146D01*
X27072Y597287D01*
X27154Y597426D01*
X27240Y597562D01*
X27329Y597697D01*
X27421Y597830D01*
X27517Y597960D01*
X32935Y592090D02*
X32873Y591989D01*
X32808Y591889D01*
X32739Y591792D01*
X32667Y591697D01*
X32593Y591604D01*
X32515Y591514D01*
X32434Y591426D01*
X32351Y591341D01*
X32265Y591259D01*
X32176Y591180D01*
X32085Y591103D01*
X31991Y591030D01*
X31895Y590959D01*
X31797Y590892D01*
X31697Y590828D01*
X31594Y590767D01*
X31490Y590710D01*
X31384Y590656D01*
X31276Y590606D01*
X31167Y590559D01*
X31056Y590515D01*
X30944Y590475D01*
X30830Y590439D01*
X30716Y590407D01*
X30600Y590378D01*
X30484Y590353D01*
X30367Y590332D01*
X30249Y590315D01*
X30131Y590301D01*
X30012Y590292D01*
X29893Y590286D01*
X29774Y590284D01*
X35645Y597057D02*
X35707Y597158D01*
X35772Y597258D01*
X35841Y597355D01*
X35913Y597450D01*
X35987Y597543D01*
X36065Y597633D01*
X36146Y597721D01*
X36229Y597806D01*
X36315Y597888D01*
X36404Y597967D01*
X36495Y598044D01*
X36589Y598117D01*
X36685Y598188D01*
X36783Y598255D01*
X36883Y598319D01*
X36986Y598380D01*
X37090Y598437D01*
X37196Y598491D01*
X37304Y598541D01*
X37413Y598588D01*
X37524Y598632D01*
X37636Y598672D01*
X37750Y598708D01*
X37864Y598740D01*
X37980Y598769D01*
X38096Y598794D01*
X38213Y598815D01*
X38331Y598832D01*
X38449Y598846D01*
X38568Y598855D01*
X38687Y598861D01*
X38806Y598863D01*
X35645Y597057D02*
X32935Y592090D01*
X26162Y605040D02*
X39709Y605040D01*
X39709Y605041D02*
X39810Y605043D01*
X39911Y605049D01*
X40012Y605058D01*
X40113Y605071D01*
X40213Y605088D01*
X40312Y605109D01*
X40410Y605133D01*
X40507Y605161D01*
X40604Y605193D01*
X40699Y605228D01*
X40792Y605267D01*
X40884Y605309D01*
X40975Y605355D01*
X41063Y605404D01*
X41150Y605456D01*
X41235Y605512D01*
X41318Y605570D01*
X41398Y605632D01*
X41476Y605697D01*
X41552Y605764D01*
X41625Y605834D01*
X41695Y605907D01*
X41762Y605983D01*
X41827Y606061D01*
X41889Y606141D01*
X41947Y606224D01*
X42003Y606309D01*
X42055Y606396D01*
X42104Y606484D01*
X42150Y606575D01*
X42192Y606667D01*
X42231Y606760D01*
X42266Y606855D01*
X42298Y606952D01*
X42326Y607049D01*
X42350Y607147D01*
X42371Y607246D01*
X42388Y607346D01*
X42401Y607447D01*
X42410Y607548D01*
X42416Y607649D01*
X42418Y607750D01*
X36096Y616228D02*
X36096Y620292D01*
X36096Y616228D02*
X36098Y616116D01*
X36104Y616005D01*
X36114Y615894D01*
X36127Y615783D01*
X36145Y615673D01*
X36167Y615564D01*
X36192Y615455D01*
X36221Y615347D01*
X36254Y615241D01*
X36291Y615135D01*
X36331Y615031D01*
X36375Y614929D01*
X36423Y614828D01*
X36474Y614729D01*
X36529Y614631D01*
X36587Y614536D01*
X36648Y614443D01*
X36713Y614352D01*
X36781Y614263D01*
X36852Y614177D01*
X36925Y614094D01*
X37002Y614013D01*
X37082Y613934D01*
X37164Y613859D01*
X37249Y613787D01*
X37336Y613717D01*
X37426Y613651D01*
X37518Y613588D01*
X37613Y613528D01*
X37709Y613472D01*
X37807Y613419D01*
X37907Y613370D01*
X38009Y613324D01*
X38112Y613282D01*
X38217Y613243D01*
X38323Y613208D01*
X38430Y613177D01*
X38538Y613150D01*
X38647Y613126D01*
X38757Y613107D01*
X38867Y613091D01*
X38978Y613079D01*
X39090Y613071D01*
X39201Y613067D01*
X39313Y613067D01*
X39424Y613071D01*
X39536Y613079D01*
X39647Y613091D01*
X39757Y613107D01*
X39867Y613126D01*
X39976Y613150D01*
X40084Y613177D01*
X40191Y613208D01*
X40297Y613243D01*
X40402Y613282D01*
X40505Y613324D01*
X40607Y613370D01*
X40707Y613419D01*
X40805Y613472D01*
X40901Y613528D01*
X40996Y613588D01*
X41088Y613651D01*
X41178Y613717D01*
X41265Y613787D01*
X41350Y613859D01*
X41432Y613934D01*
X41512Y614013D01*
X41589Y614094D01*
X41662Y614177D01*
X41733Y614263D01*
X41801Y614352D01*
X41866Y614443D01*
X41927Y614536D01*
X41985Y614631D01*
X42040Y614729D01*
X42091Y614828D01*
X42139Y614929D01*
X42183Y615031D01*
X42223Y615135D01*
X42260Y615241D01*
X42293Y615347D01*
X42322Y615455D01*
X42347Y615564D01*
X42369Y615673D01*
X42387Y615783D01*
X42400Y615894D01*
X42410Y616005D01*
X42416Y616116D01*
X42418Y616228D01*
X42418Y620292D01*
X34290Y620292D01*
X34290Y620291D02*
X34189Y620289D01*
X34088Y620283D01*
X33987Y620274D01*
X33886Y620261D01*
X33786Y620244D01*
X33687Y620223D01*
X33589Y620199D01*
X33492Y620171D01*
X33395Y620139D01*
X33300Y620104D01*
X33207Y620065D01*
X33115Y620023D01*
X33024Y619977D01*
X32936Y619928D01*
X32849Y619876D01*
X32764Y619820D01*
X32681Y619762D01*
X32601Y619700D01*
X32523Y619635D01*
X32447Y619568D01*
X32374Y619498D01*
X32304Y619425D01*
X32237Y619349D01*
X32172Y619271D01*
X32110Y619191D01*
X32052Y619108D01*
X31996Y619023D01*
X31944Y618937D01*
X31895Y618848D01*
X31849Y618757D01*
X31807Y618665D01*
X31768Y618572D01*
X31733Y618477D01*
X31701Y618380D01*
X31673Y618283D01*
X31649Y618185D01*
X31628Y618086D01*
X31611Y617986D01*
X31598Y617885D01*
X31589Y617784D01*
X31583Y617683D01*
X31581Y617582D01*
X31581Y613970D01*
X31581Y626687D02*
X42418Y630300D01*
X31581Y633912D01*
X42418Y642422D02*
X42418Y646938D01*
X42418Y642422D02*
X42416Y642321D01*
X42410Y642220D01*
X42401Y642119D01*
X42388Y642018D01*
X42371Y641918D01*
X42350Y641819D01*
X42326Y641721D01*
X42298Y641624D01*
X42266Y641527D01*
X42231Y641432D01*
X42192Y641339D01*
X42150Y641247D01*
X42104Y641156D01*
X42055Y641068D01*
X42003Y640981D01*
X41947Y640896D01*
X41889Y640813D01*
X41827Y640733D01*
X41762Y640655D01*
X41695Y640579D01*
X41625Y640506D01*
X41552Y640436D01*
X41476Y640369D01*
X41398Y640304D01*
X41318Y640242D01*
X41235Y640184D01*
X41150Y640128D01*
X41063Y640076D01*
X40975Y640027D01*
X40884Y639981D01*
X40792Y639939D01*
X40699Y639900D01*
X40604Y639865D01*
X40507Y639833D01*
X40410Y639805D01*
X40312Y639781D01*
X40213Y639760D01*
X40113Y639743D01*
X40012Y639730D01*
X39911Y639721D01*
X39810Y639715D01*
X39709Y639713D01*
X35193Y639713D01*
X35193Y639714D02*
X35074Y639716D01*
X34954Y639722D01*
X34835Y639732D01*
X34717Y639746D01*
X34598Y639763D01*
X34481Y639785D01*
X34364Y639810D01*
X34249Y639840D01*
X34134Y639873D01*
X34020Y639910D01*
X33908Y639950D01*
X33797Y639995D01*
X33688Y640043D01*
X33580Y640094D01*
X33474Y640149D01*
X33370Y640208D01*
X33268Y640270D01*
X33168Y640335D01*
X33070Y640404D01*
X32974Y640476D01*
X32881Y640551D01*
X32791Y640628D01*
X32703Y640709D01*
X32618Y640793D01*
X32536Y640880D01*
X32456Y640969D01*
X32380Y641061D01*
X32306Y641155D01*
X32236Y641252D01*
X32169Y641350D01*
X32105Y641451D01*
X32045Y641555D01*
X31988Y641660D01*
X31935Y641767D01*
X31885Y641875D01*
X31839Y641985D01*
X31797Y642097D01*
X31758Y642210D01*
X31723Y642324D01*
X31692Y642439D01*
X31664Y642556D01*
X31641Y642673D01*
X31621Y642790D01*
X31605Y642909D01*
X31593Y643028D01*
X31585Y643147D01*
X31581Y643266D01*
X31581Y643386D01*
X31585Y643505D01*
X31593Y643624D01*
X31605Y643743D01*
X31621Y643862D01*
X31641Y643979D01*
X31664Y644096D01*
X31692Y644213D01*
X31723Y644328D01*
X31758Y644442D01*
X31797Y644555D01*
X31839Y644667D01*
X31885Y644777D01*
X31935Y644885D01*
X31988Y644992D01*
X32045Y645097D01*
X32105Y645201D01*
X32169Y645302D01*
X32236Y645400D01*
X32306Y645497D01*
X32380Y645591D01*
X32456Y645683D01*
X32536Y645772D01*
X32618Y645859D01*
X32703Y645943D01*
X32791Y646024D01*
X32881Y646101D01*
X32974Y646176D01*
X33070Y646248D01*
X33168Y646317D01*
X33268Y646382D01*
X33370Y646444D01*
X33474Y646503D01*
X33580Y646558D01*
X33688Y646609D01*
X33797Y646657D01*
X33908Y646702D01*
X34020Y646742D01*
X34134Y646779D01*
X34249Y646812D01*
X34364Y646842D01*
X34481Y646867D01*
X34598Y646889D01*
X34717Y646906D01*
X34835Y646920D01*
X34954Y646930D01*
X35074Y646936D01*
X35193Y646938D01*
X36999Y646938D01*
X36999Y639713D01*
D11*
X317500Y279400D03*
X317500Y228600D03*
X596900Y279400D03*
X596900Y228600D03*
X736600Y584200D03*
X736600Y533400D03*
X393700Y647700D03*
X393700Y596900D03*
X38100Y279400D03*
X38100Y228600D03*
D12*
X685800Y495300D03*
X685800Y546100D03*
D13*
X368300Y222504D02*
X368300Y209296D01*
X393700Y209296D02*
X393700Y222504D01*
X520700Y222504D02*
X520700Y209296D01*
X546100Y209296D02*
X546100Y222504D01*
X419100Y222504D02*
X419100Y209296D01*
X444500Y209296D02*
X444500Y222504D01*
X495300Y222504D02*
X495300Y209296D01*
X469900Y209296D02*
X469900Y222504D01*
X546100Y285496D02*
X546100Y298704D01*
X520700Y298704D02*
X520700Y285496D01*
X495300Y285496D02*
X495300Y298704D01*
X469900Y298704D02*
X469900Y285496D01*
X444500Y285496D02*
X444500Y298704D01*
X419100Y298704D02*
X419100Y285496D01*
X393700Y285496D02*
X393700Y298704D01*
X368300Y298704D02*
X368300Y285496D01*
X88900Y222504D02*
X88900Y209296D01*
X114300Y209296D02*
X114300Y222504D01*
X241300Y222504D02*
X241300Y209296D01*
X266700Y209296D02*
X266700Y222504D01*
X139700Y222504D02*
X139700Y209296D01*
X165100Y209296D02*
X165100Y222504D01*
X215900Y222504D02*
X215900Y209296D01*
X190500Y209296D02*
X190500Y222504D01*
X266700Y285496D02*
X266700Y298704D01*
X241300Y298704D02*
X241300Y285496D01*
X215900Y285496D02*
X215900Y298704D01*
X190500Y298704D02*
X190500Y285496D01*
X165100Y285496D02*
X165100Y298704D01*
X139700Y298704D02*
X139700Y285496D01*
X114300Y285496D02*
X114300Y298704D01*
X88900Y298704D02*
X88900Y285496D01*
X647700Y222504D02*
X647700Y209296D01*
X673100Y209296D02*
X673100Y222504D01*
X800100Y222504D02*
X800100Y209296D01*
X825500Y209296D02*
X825500Y222504D01*
X698500Y222504D02*
X698500Y209296D01*
X723900Y209296D02*
X723900Y222504D01*
X774700Y222504D02*
X774700Y209296D01*
X749300Y209296D02*
X749300Y222504D01*
X825500Y285496D02*
X825500Y298704D01*
X800100Y298704D02*
X800100Y285496D01*
X774700Y285496D02*
X774700Y298704D01*
X749300Y298704D02*
X749300Y285496D01*
X723900Y285496D02*
X723900Y298704D01*
X698500Y298704D02*
X698500Y285496D01*
X673100Y285496D02*
X673100Y298704D01*
X647700Y298704D02*
X647700Y285496D01*
D14*
X520700Y589280D02*
X520700Y604520D01*
X495300Y604520D02*
X495300Y589280D01*
X469900Y589280D02*
X469900Y604520D01*
X63500Y45720D02*
X63500Y30480D01*
X88900Y30480D02*
X88900Y45720D01*
X114300Y45720D02*
X114300Y30480D01*
X139700Y30480D02*
X139700Y45720D01*
X165100Y45720D02*
X165100Y30480D01*
X190500Y30480D02*
X190500Y45720D01*
X215900Y45720D02*
X215900Y30480D01*
X241300Y30480D02*
X241300Y45720D01*
X342900Y45720D02*
X342900Y30480D01*
X368300Y30480D02*
X368300Y45720D01*
X393700Y45720D02*
X393700Y30480D01*
X419100Y30480D02*
X419100Y45720D01*
X444500Y45720D02*
X444500Y30480D01*
X469900Y30480D02*
X469900Y45720D01*
X495300Y45720D02*
X495300Y30480D01*
X520700Y30480D02*
X520700Y45720D01*
X622300Y45720D02*
X622300Y30480D01*
X647700Y30480D02*
X647700Y45720D01*
X673100Y45720D02*
X673100Y30480D01*
X698500Y30480D02*
X698500Y45720D01*
X723900Y45720D02*
X723900Y30480D01*
X749300Y30480D02*
X749300Y45720D01*
X774700Y45720D02*
X774700Y30480D01*
X800100Y30480D02*
X800100Y45720D01*
D15*
X114300Y330200D03*
X114300Y431800D03*
D16*
X139700Y431800D03*
X139700Y330200D03*
X241300Y431800D03*
X241300Y330200D03*
X215900Y431800D03*
X215900Y330200D03*
X190500Y431800D03*
X190500Y330200D03*
D15*
X393700Y330200D03*
X393700Y431800D03*
D16*
X368300Y177800D03*
X368300Y76200D03*
X393700Y177800D03*
X393700Y76200D03*
X419100Y177800D03*
X419100Y76200D03*
X444500Y177800D03*
X444500Y76200D03*
X469900Y177800D03*
X469900Y76200D03*
X88900Y177800D03*
X88900Y76200D03*
X495300Y177800D03*
X495300Y76200D03*
X520700Y177800D03*
X520700Y76200D03*
X444500Y431800D03*
X444500Y330200D03*
X419100Y431800D03*
X419100Y330200D03*
X520700Y431800D03*
X520700Y330200D03*
X495300Y431800D03*
X495300Y330200D03*
X469900Y431800D03*
X469900Y330200D03*
D15*
X673100Y330200D03*
X673100Y431800D03*
D16*
X647700Y177800D03*
X647700Y76200D03*
X673100Y177800D03*
X673100Y76200D03*
X114300Y177800D03*
X114300Y76200D03*
X698500Y177800D03*
X698500Y76200D03*
X723900Y177800D03*
X723900Y76200D03*
X749300Y177800D03*
X749300Y76200D03*
X774700Y177800D03*
X774700Y76200D03*
X800100Y177800D03*
X800100Y76200D03*
X723900Y431800D03*
X723900Y330200D03*
X698500Y431800D03*
X698500Y330200D03*
X800100Y431800D03*
X800100Y330200D03*
X774700Y431800D03*
X774700Y330200D03*
X749300Y431800D03*
X749300Y330200D03*
X139700Y177800D03*
X139700Y76200D03*
D17*
X355600Y533400D03*
X254000Y533400D03*
X355600Y558800D03*
X254000Y558800D03*
D18*
X419100Y546100D03*
X520700Y546100D03*
X419100Y508000D03*
X520700Y508000D03*
D16*
X165100Y177800D03*
X165100Y76200D03*
X190500Y177800D03*
X190500Y76200D03*
X215900Y177800D03*
X215900Y76200D03*
X241300Y177800D03*
X241300Y76200D03*
X165100Y431800D03*
X165100Y330200D03*
D14*
X621792Y498094D02*
X637032Y498094D01*
X637032Y543306D02*
X621792Y543306D01*
X572008Y498094D02*
X556768Y498094D01*
X556768Y543306D02*
X572008Y543306D01*
D19*
X127000Y609600D03*
X127000Y584200D03*
X203200Y584200D03*
X203200Y609600D03*
X127000Y558800D03*
X127000Y533400D03*
X203200Y558800D03*
X203200Y533400D03*
D20*
X330411Y622050D03*
X279611Y622050D03*
X799850Y507789D03*
X799850Y558589D03*
X660611Y609350D03*
X609811Y609350D03*
D21*
X114300Y330200D02*
X114300Y292100D01*
X88900Y215900D02*
X88900Y177800D01*
X114300Y177800D02*
X114300Y215900D01*
X139700Y215900D02*
X139700Y177800D01*
X165100Y177800D02*
X165100Y215900D01*
X190500Y215900D02*
X190500Y177800D01*
X215900Y177800D02*
X215900Y215900D01*
X241300Y215900D02*
X241300Y177800D01*
X165100Y292100D02*
X165100Y330200D01*
X38100Y228600D02*
X38100Y25400D01*
X50800Y12700D01*
X254000Y12700D01*
X266700Y25400D01*
X266700Y215900D01*
X254000Y12700D02*
X533400Y12700D01*
X546100Y25400D01*
X546100Y215900D01*
X533400Y12700D02*
X800100Y12700D01*
X825500Y38100D01*
X825500Y215900D01*
X279400Y228600D02*
X266700Y215900D01*
X279400Y228600D02*
X317500Y228600D01*
X546100Y215900D02*
X558800Y228600D01*
X596900Y228600D01*
X465692Y275336D02*
X459740Y281288D01*
X444500Y344568D02*
X444500Y431800D01*
X486664Y275336D02*
X546100Y215900D01*
X486664Y275336D02*
X465692Y275336D01*
X459740Y329328D02*
X444500Y344568D01*
X459740Y329328D02*
X459740Y281288D01*
X739140Y281288D02*
X745092Y275336D01*
X723900Y381000D02*
X723900Y431800D01*
X723900Y381000D02*
X723900Y344568D01*
X766064Y275336D02*
X825500Y215900D01*
X766064Y275336D02*
X745092Y275336D01*
X739140Y329328D02*
X723900Y344568D01*
X739140Y329328D02*
X739140Y281288D01*
X186292Y275336D02*
X180340Y281288D01*
X165100Y344568D02*
X165100Y431800D01*
X207264Y275336D02*
X266700Y215900D01*
X207264Y275336D02*
X186292Y275336D01*
X180340Y329328D02*
X165100Y344568D01*
X180340Y329328D02*
X180340Y281288D01*
X799850Y507789D02*
X799850Y558589D01*
X749300Y406400D02*
X723900Y381000D01*
X749300Y406400D02*
X812800Y406400D01*
X825500Y419100D01*
X799850Y470150D02*
X799850Y507789D01*
X825500Y444500D02*
X825500Y419100D01*
X825500Y444500D02*
X799850Y470150D01*
X131208Y568960D02*
X122792Y568960D01*
X116840Y563008D01*
X116840Y561340D01*
X114300Y558800D01*
X131208Y568960D02*
X165100Y535068D01*
X165100Y431800D01*
X114300Y533400D02*
X114300Y558800D01*
X114300Y533400D02*
X127000Y533400D01*
X26543Y284187D02*
X26543Y274613D01*
X26543Y284187D02*
X33313Y290957D01*
X38100Y263056D02*
X38100Y228600D01*
X36957Y290957D02*
X33313Y290957D01*
X26543Y274613D02*
X38100Y263056D01*
X52324Y306324D02*
X52324Y392095D01*
X101600Y441371D01*
X52324Y306324D02*
X36957Y290957D01*
X245283Y589788D02*
X209723Y625348D01*
X128380Y625348D01*
X101600Y598568D01*
X101600Y441371D01*
X361188Y508000D02*
X419100Y508000D01*
X310388Y558800D02*
X310388Y561115D01*
X310388Y558800D02*
X361188Y508000D01*
X310388Y561115D02*
X281715Y589788D01*
X245283Y589788D01*
X368300Y558800D02*
X419100Y508000D01*
X368300Y558800D02*
X368300Y622300D01*
X393700Y647700D01*
X444500Y647700D01*
X495300Y596900D01*
X762211Y558589D02*
X799850Y558589D01*
X762211Y558589D02*
X736600Y584200D01*
X711450Y609350D01*
X660611Y609350D01*
X114300Y441960D02*
X110092Y441960D01*
X114300Y441960D02*
X118508Y441960D01*
X124460Y436008D01*
X124460Y427592D01*
X88900Y392032D02*
X88900Y292100D01*
X88900Y392032D02*
X124460Y427592D01*
X57912Y389780D02*
X57912Y299212D01*
X57912Y389780D02*
X110092Y441960D01*
X57912Y299212D02*
X38100Y279400D01*
X389492Y441960D02*
X397908Y441960D01*
X403860Y436008D01*
X403860Y427592D01*
X368300Y392032D02*
X368300Y292100D01*
X368300Y392032D02*
X403860Y427592D01*
X337312Y389780D02*
X337312Y299212D01*
X337312Y389780D02*
X389492Y441960D01*
X337312Y299212D02*
X317500Y279400D01*
X668892Y441960D02*
X677308Y441960D01*
X683260Y436008D01*
X683260Y431800D01*
X683260Y427592D01*
X647700Y392032D02*
X647700Y292100D01*
X647700Y392032D02*
X683260Y427592D01*
X616712Y389780D02*
X616712Y299212D01*
X616712Y389780D02*
X668892Y441960D01*
X616712Y299212D02*
X596900Y279400D01*
X241300Y355600D02*
X241300Y431800D01*
X256540Y281288D02*
X262492Y275336D01*
X270908Y275336D01*
X256540Y340360D02*
X241300Y355600D01*
X274972Y279400D02*
X270908Y275336D01*
X274972Y279400D02*
X317500Y279400D01*
X256540Y281288D02*
X256540Y340360D01*
X520700Y406400D02*
X520700Y431800D01*
X520700Y406400D02*
X520700Y355600D01*
X535940Y281288D02*
X541892Y275336D01*
X550308Y275336D01*
X535940Y340360D02*
X520700Y355600D01*
X554372Y279400D02*
X550308Y275336D01*
X554372Y279400D02*
X596900Y279400D01*
X535940Y281288D02*
X535940Y340360D01*
X694292Y421640D02*
X702708Y421640D01*
X713740Y436008D02*
X719692Y441960D01*
X728108Y441960D01*
X739140Y427592D02*
X745092Y421640D01*
X713740Y432672D02*
X713740Y436008D01*
X739140Y430928D02*
X739140Y427592D01*
X789068Y431800D02*
X800100Y431800D01*
X713740Y432672D02*
X702708Y421640D01*
X728108Y441960D02*
X739140Y430928D01*
X778908Y421640D02*
X789068Y431800D01*
X684132Y431800D02*
X683260Y431800D01*
X684132Y431800D02*
X694292Y421640D01*
X745092Y421640D02*
X778908Y421640D01*
X241300Y571500D02*
X203200Y609600D01*
X241300Y571500D02*
X266700Y571500D01*
X266700Y495300D01*
X279400Y482600D01*
X749300Y482600D02*
X800100Y431800D01*
X711200Y482600D02*
X279400Y482600D01*
X711200Y482600D02*
X749300Y482600D01*
X480932Y546100D02*
X419100Y546100D01*
X480932Y546100D02*
X491092Y556260D01*
X114300Y525497D02*
X108712Y531085D01*
X187960Y594360D02*
X203200Y609600D01*
X187960Y594360D02*
X122792Y594360D01*
X108712Y580280D02*
X108712Y531085D01*
X108712Y580280D02*
X122792Y594360D01*
X114300Y525497D02*
X114300Y441960D01*
X393700Y596900D02*
X469900Y596900D01*
X419100Y546100D02*
X393700Y571500D01*
X393700Y596900D01*
X429260Y429260D02*
X429260Y427592D01*
X393700Y392032D02*
X368300Y392032D01*
X393700Y392032D02*
X429260Y427592D01*
X434340Y436008D02*
X440292Y441960D01*
X448708Y441960D01*
X454660Y436008D01*
X434340Y436008D02*
X434340Y434340D01*
X454660Y421640D02*
X469900Y406400D01*
X454660Y421640D02*
X454660Y436008D01*
X434340Y434340D02*
X429260Y429260D01*
X469900Y406400D02*
X520700Y406400D01*
X491092Y556260D02*
X654216Y556260D01*
X655613Y557657D01*
X711200Y557657D01*
X711200Y482600D01*
X139700Y330200D02*
X139700Y292100D01*
X215900Y292100D02*
X215900Y330200D01*
X241300Y330200D02*
X241300Y292100D01*
X190500Y292100D02*
X190500Y330200D01*
X114300Y431800D02*
X63500Y381000D01*
X63500Y38100D01*
X88900Y38100D02*
X88900Y76200D01*
X114300Y76200D02*
X114300Y38100D01*
X139700Y38100D02*
X139700Y76200D01*
X165100Y76200D02*
X165100Y38100D01*
X190500Y38100D02*
X190500Y76200D01*
X215900Y76200D02*
X215900Y38100D01*
X241300Y38100D02*
X241300Y76200D01*
X393700Y292100D02*
X393700Y330200D01*
X368300Y215900D02*
X368300Y177800D01*
X393700Y177800D02*
X393700Y215900D01*
X419100Y215900D02*
X419100Y177800D01*
X444500Y177800D02*
X444500Y215900D01*
X469900Y215900D02*
X469900Y177800D01*
X495300Y177800D02*
X495300Y215900D01*
X520700Y215900D02*
X520700Y177800D01*
X444500Y292100D02*
X444500Y330200D01*
X419100Y330200D02*
X419100Y292100D01*
X495300Y292100D02*
X495300Y330200D01*
X520700Y330200D02*
X520700Y292100D01*
X469900Y292100D02*
X469900Y330200D01*
X393700Y431800D02*
X342900Y381000D01*
X342900Y38100D01*
X368300Y38100D02*
X368300Y76200D01*
X393700Y76200D02*
X393700Y38100D01*
X419100Y38100D02*
X419100Y76200D01*
X444500Y76200D02*
X444500Y38100D01*
X469900Y38100D02*
X469900Y76200D01*
X495300Y76200D02*
X495300Y38100D01*
X520700Y38100D02*
X520700Y76200D01*
X673100Y292100D02*
X673100Y330200D01*
X647700Y215900D02*
X647700Y177800D01*
X673100Y177800D02*
X673100Y215900D01*
X698500Y215900D02*
X698500Y177800D01*
X723900Y177800D02*
X723900Y215900D01*
X749300Y215900D02*
X749300Y177800D01*
X774700Y177800D02*
X774700Y215900D01*
X800100Y215900D02*
X800100Y177800D01*
X723900Y292100D02*
X723900Y330200D01*
X698500Y330200D02*
X698500Y292100D01*
X774700Y292100D02*
X774700Y330200D01*
X800100Y330200D02*
X800100Y292100D01*
X749300Y292100D02*
X749300Y330200D01*
X673100Y431800D02*
X622300Y381000D01*
X622300Y38100D01*
X647700Y38100D02*
X647700Y76200D01*
X673100Y76200D02*
X673100Y38100D01*
X698500Y38100D02*
X698500Y76200D01*
X723900Y76200D02*
X723900Y38100D01*
X749300Y38100D02*
X749300Y76200D01*
X774700Y76200D02*
X774700Y38100D01*
X800100Y38100D02*
X800100Y76200D01*
X331724Y357124D02*
X266700Y292100D01*
X331724Y357124D02*
X331724Y392095D01*
X387177Y447548D01*
X400223Y447548D01*
X415971Y431800D02*
X419100Y431800D01*
X415971Y431800D02*
X400223Y447548D01*
X546100Y292100D02*
X611124Y357124D01*
X611124Y392095D01*
X666577Y447548D01*
X679623Y447548D01*
X695371Y431800D02*
X698500Y431800D01*
X695371Y431800D02*
X679623Y447548D01*
X254000Y469900D02*
X215900Y431800D01*
X254000Y469900D02*
X457200Y469900D01*
X495300Y431800D01*
X457200Y469900D02*
X736600Y469900D01*
X774700Y431800D01*
X215900Y431800D02*
X215900Y495300D01*
X207408Y594360D02*
X198992Y594360D01*
X207408Y594360D02*
X213360Y588408D01*
X213360Y579992D01*
X207408Y574040D01*
X200943Y574040D01*
X183388Y556485D01*
X183388Y527812D01*
X215900Y495300D01*
X188832Y584200D02*
X127000Y584200D01*
X188832Y584200D02*
X198992Y594360D01*
X203200Y431800D02*
X190500Y431800D01*
X203200Y431800D02*
X205740Y429260D01*
X205740Y427592D01*
X211692Y421640D01*
X213360Y421640D01*
X215900Y419100D01*
X218440Y421640D01*
X220108Y421640D01*
X231140Y432672D01*
X231140Y436008D01*
X252332Y457200D01*
X444500Y457200D02*
X469900Y431800D01*
X444500Y457200D02*
X252332Y457200D01*
X469900Y431800D02*
X482600Y419100D01*
X510540Y436008D02*
X516492Y441960D01*
X518160Y441960D01*
X533400Y457200D01*
X510540Y432672D02*
X496968Y419100D01*
X510540Y432672D02*
X510540Y436008D01*
X496968Y419100D02*
X482600Y419100D01*
X533400Y457200D02*
X723900Y457200D01*
X749300Y431800D01*
X203200Y584200D02*
X177800Y558800D01*
X177800Y444500D02*
X190500Y431800D01*
X177800Y444500D02*
X177800Y558800D01*
X203200Y533400D02*
X254000Y533400D01*
X254000Y558800D02*
X203200Y558800D01*
X139700Y546100D02*
X127000Y558800D01*
X139700Y546100D02*
X139700Y431800D01*
X279611Y609389D02*
X355600Y533400D01*
X279611Y609389D02*
X279611Y622050D01*
X355600Y596861D02*
X355600Y558800D01*
X355600Y596861D02*
X330411Y622050D01*
X520700Y596900D02*
X533400Y596900D01*
X545850Y609350D01*
X609811Y609350D01*
X622550Y609350D01*
X723900Y571500D02*
X736600Y558800D01*
X736600Y533400D01*
X660400Y571500D02*
X622550Y609350D01*
X660400Y571500D02*
X723900Y571500D01*
X632206Y495300D02*
X629412Y498094D01*
X632206Y495300D02*
X685800Y495300D01*
X629412Y498094D02*
X564388Y498094D01*
X554482Y508000D02*
X520700Y508000D01*
X554482Y508000D02*
X564388Y498094D01*
X207408Y619760D02*
X198992Y619760D01*
X207408Y619760D02*
X213360Y613808D01*
X188832Y609600D02*
X127000Y609600D01*
X213360Y612140D02*
X213360Y613808D01*
X198992Y619760D02*
X188832Y609600D01*
X241300Y584200D02*
X279400Y584200D01*
X304800Y558800D01*
X304800Y520700D01*
X330200Y495300D01*
X469900Y495300D02*
X520700Y546100D01*
X241300Y584200D02*
X213360Y612140D01*
X330200Y495300D02*
X469900Y495300D01*
X629412Y543306D02*
X683006Y543306D01*
X685800Y546100D01*
X629412Y543306D02*
X564388Y543306D01*
X561594Y546100D02*
X520700Y546100D01*
X561594Y546100D02*
X564388Y543306D01*
M02*
